<svg width="176px" height="36px" viewBox="0 0 176 36" version="1.1" xmlns="http://www.w3.org/2000/svg" xmlns:xlink="http://www.w3.org/1999/xlink">
    <g id="Amazix-logo" stroke="none" stroke-width="1" fill="none" fill-rule="evenodd">
        <g id="Desktop-Copy" transform="translate(-42.000000, -33.000000)" fill="#293345">
            <g id="Amazix" transform="translate(42.000000, 33.000000)">
                <g id="Group-14" transform="translate(51.000000, 3.000000)">
                    <path d="M9.34058236,1 L14.3111065,1 L26,25 L20.639262,25 L14.1693546,19.7811159 L7.20559211,19.7811159 L5.20403874,25 L0,25 L9.34058236,1 Z M16.8266716,17.072834 L11.8091648,6.49356223 L8.50660179,15.6266094 L15.2321478,15.6266094 L16.8266716,17.072834 Z" id="A"></path>
                    <path d="M28,8.07113543 L32.7358033,8.07113543 L32.7358033,10.0547196 C33.4299435,9.25672196 34.2360296,8.64113304 35.1540859,8.20793434 C36.0721422,7.77473564 37.0237716,7.55813953 38.0090028,7.55813953 C39.2405417,7.55813953 40.2257581,7.75763594 40.9646814,8.15663475 C41.7036048,8.55563355 42.2857781,9.14272298 42.7112188,9.91792066 C43.405359,9.16552291 44.2506298,8.58413338 45.2470568,8.17373461 C46.2434837,7.76333584 47.2342979,7.55813953 48.2195291,7.55813953 C50.2795579,7.55813953 51.7517846,8.09392989 52.6362535,9.16552668 C53.5207223,10.2371235 53.9629501,11.7874956 53.9629501,13.8166895 L53.9629501,24.4870041 L49.126385,24.4870041 L49.126385,14.5348837 C49.126385,13.4860869 48.9248635,12.7337004 48.5218144,12.2777018 C48.1187653,11.8217031 47.4694181,11.5937073 46.5737535,11.5937073 C45.3198229,11.5937073 44.3122153,12.0952982 43.5509003,13.0984952 C43.5956835,13.828093 43.6180748,14.4208824 43.6180748,14.876881 L43.6180748,24.4870041 L38.7479224,24.4870041 L38.7479224,14.3638851 C38.7479224,13.3606881 38.57439,12.6482009 38.2273199,12.2264022 C37.8802499,11.8046035 37.2812831,11.5937073 36.4304017,11.5937073 C35.1092963,11.5937073 33.933754,12.3574935 32.9037396,13.8850889 L32.9037396,24.4870041 L28,24.4870041 L28,8.07113543 Z M58.0102147,23.4781122 C56.7674799,22.4635152 56.1461219,21.0784402 56.1461219,19.3228454 C56.1461219,17.4988509 56.7394908,16.0795764 57.9262465,15.0649795 C59.1130022,14.0503825 60.7923483,13.5430917 62.9643352,13.5430917 C63.9271747,13.5430917 64.8452172,13.6456898 65.7184903,13.8508892 C66.5917634,14.0560886 67.3642626,14.3410834 68.0360111,14.7058824 L68.0360111,14.2954856 C68.0360111,13.2694887 67.6777506,12.5171023 66.9612188,12.0383037 C66.2446871,11.5595051 65.1475143,11.3201094 63.6696676,11.3201094 C61.6992053,11.3201094 59.8855115,11.6963027 58.2285319,12.4487004 L58.2285319,8.68673051 C58.9450636,8.36753146 59.8743018,8.09963629 61.0162742,7.88303694 C62.1582467,7.66643759 63.300202,7.55813953 64.4421745,7.55813953 C67.3530847,7.55813953 69.525039,8.16802856 70.9581025,9.3878249 C72.391166,10.6076212 73.107687,12.3118906 73.107687,14.500684 L73.107687,24.4870041 L68.3382964,24.4870041 L68.3382964,22.9822161 C66.9724078,24.3274121 65.1363227,25 62.8299861,25 C60.8595239,25 59.2529494,24.4927091 58.0102147,23.4781122 Z M66.45741,21.1012312 C67.1291585,20.7820321 67.6553536,20.3374402 68.0360111,19.7674419 L68.0360111,18.125855 C66.8940386,17.3506573 65.6401269,16.9630643 64.2742382,16.9630643 C63.3337903,16.9630643 62.6116715,17.1625607 62.1078601,17.5615595 C61.6040487,17.9605583 61.3521468,18.5476477 61.3521468,19.3228454 C61.3521468,20.0524432 61.5984509,20.6110332 62.0910665,20.998632 C62.5836821,21.3862308 63.2890074,21.5800274 64.2070637,21.5800274 C65.0355535,21.5800274 65.7856615,21.4204302 66.45741,21.1012312 Z M75.7946676,21.0328317 L87.2815097,4.9247606 L76.0969529,4.9247606 L76.0969529,0.581395349 L93.5959141,0.581395349 L93.5959141,4.06976744 L82.1762465,20.1436389 L94.2676593,20.1436389 L94.2676593,24.4870041 L75.7946676,24.4870041 L75.7946676,21.0328317 Z M97.9286704,4.75376197 C97.3912716,4.22936354 97.1225762,3.56817544 97.1225762,2.77017784 C97.1225762,1.99498016 97.3912716,1.33949196 97.9286704,0.80369357 C98.4660692,0.267895178 99.126612,4.86007343e-15 99.9103186,0 C100.694025,4.86007343e-15 101.354568,0.267895178 101.891967,0.80369357 C102.429366,1.33949196 102.698061,1.99498016 102.698061,2.77017784 C102.698061,3.56817544 102.429366,4.22936354 101.891967,4.75376197 C101.354568,5.2781604 100.694025,5.54035568 99.9103186,5.54035568 C99.126612,5.54035568 98.4660692,5.2781604 97.9286704,4.75376197 Z M97.357687,8.07113543 L102.46295,8.07113543 L102.46295,24.4870041 L97.357687,24.4870041 L97.357687,8.07113543 Z M112.438366,16.005472 L105.989612,8.07113543 L111.665859,8.07113543 L115.259695,12.5170999 L118.887119,8.07113543 L124.563366,8.07113543 L118.081025,16.005472 L125,24.4870041 L119.390928,24.4870041 L115.259695,19.4596443 L111.16205,24.4870041 L105.519391,24.4870041 L112.438366,16.005472 Z" id="maZix"></path>
                </g>
                <path d="M10.5400425,30.6797736 L19.4132231,21.895177 L29,21.895177 L21.3679346,5.98460997 L19.7103966,9.20477987 L24.7024793,19.6315257 L18.4214876,19.6315257 L16.3204959,21.7346195 L17.0991736,19.6315257 L14.4545455,19.6315257 L9.15822809,29.9934606 C9.09720013,29.9605459 9.03640479,29.9273941 8.97584445,29.8940068 L22.2307128,3.56145915 L32.9039444,25.6726303 L30.4032508,24.0469849 L20.4292113,24.0469849 L17.9406289,26.6483297 L29.2222028,26.6483297 L41,33.98461 L23.9428793,0.0901486067 C34.6606151,1.02211951 43,8.01189757 43,16.4846258 C43,20.1383277 41.4492183,23.5162466 38.8256756,26.2515312 L44,35.9534082 L42.2731893,35.98461 L32.6534889,30.5904903 C29.4008695,32.1094627 25.5825882,32.98461 21.500066,32.98461 C17.4981873,32.98461 13.7502104,32.1437047 10.5400425,30.6797736 Z M20.5639807,0 L6.46105275,28.271751 C2.47493475,25.275912 0,21.1003321 0,16.4846258 C0,7.6187479 9.13132788,0.376636185 20.5639807,3.43475248e-16 Z" id="Logo"></path>
            </g>
        </g>
    </g>
</svg>