<svg xmlns="http://www.w3.org/2000/svg" viewBox="0 0 123.02 78.46"><defs><style>.cls-1{fill:#e9e9ff;}</style></defs><title>Asset 5</title><g id="Layer_2" data-name="Layer 2"><g id="ESSENTIA_-_opacity" data-name="ESSENTIA - opacity"><path class="cls-1" d="M65.29,44.08l-8.5-1.94L53,28.67l38.57,9c.77-8.24-7.89-15.7-21-18.11S43.23,20.4,36,27.46L19.26,23.93C30.9,10.44,58,4.67,81,10.77s34,21.94,25,36.13l-7.82,4.7ZM36.59,3.27C13.27,9.57-1.25,23.82.09,39.1s18.26,28.4,42.53,33l30.23,6.36,10-6,.37-.62L82,71.59l-35.36-7.5C22.66,59.49,9,44.45,15.47,29.8l16.67,3.51c-3,9,5.55,17.81,20,20.61l33.43,7.42,11.65,2.55,20.59-12.35C128,37.61,123,21.41,105.15,10.72,87.18-.07,59.9-3,36.59,3.27Z"/></g></g></svg>