<svg xmlns="http://www.w3.org/2000/svg" viewBox="0 0 58.01 21.54"><defs><style>.cls-1{fill:#c6c6c6;}</style></defs><title>Asset 49</title><g id="Layer_2" data-name="Layer 2"><g id="text_-_digital" data-name="text - digital"><path id="digital" class="cls-1" d="M0,10.82C0,7,2.09,4.51,5.16,4.51A4.29,4.29,0,0,1,9,6.71H9V0h2V16.91H9.09V14.85h0a4.35,4.35,0,0,1-3.94,2.27C2.1,17.16,0,14.64,0,10.82Zm2.08,0c0,2.76,1.36,4.51,3.52,4.51s3.5-1.78,3.5-4.51S7.69,6.31,5.6,6.31,2.08,8.06,2.08,10.82ZM13.74,1.41A1.27,1.27,0,1,1,15,2.67h0A1.28,1.28,0,0,1,13.74,1.41ZM14,4.72h2V16.91H14Zm4.67,13.2h2.1a3.15,3.15,0,0,0,3.13,1.85c2.11,0,3.39-1.22,3.39-3V14.84h-.05a4.41,4.41,0,0,1-3.9,2.2c-3.11,0-5.15-2.45-5.15-6.24s2-6.26,5.19-6.26a4.41,4.41,0,0,1,4,2.27h0V4.75h2v12c0,2.9-2.15,4.84-5.51,4.84C21.12,21.51,19,20,18.66,17.92Zm8.62-7.15c0-2.68-1.42-4.46-3.54-4.46S20.27,8,20.27,10.77s1.37,4.44,3.47,4.44,3.54-1.75,3.54-4.44Zm4.55-9.36a1.28,1.28,0,1,1,1.3,1.26h0A1.28,1.28,0,0,1,31.83,1.41Zm.25,3.31h2V16.91h-2Zm7.48-2.94V4.72h2.36V6.4H39.56v7.24c0,1.12.47,1.62,1.51,1.62a3.56,3.56,0,0,0,.84-.06v1.71a7,7,0,0,1-1.29.1c-2.23,0-3.1-.92-3.1-3.26V6.4H35.7V4.72h1.82V1.78Zm3.81,11.69c0-2.09,1.6-3.4,4.41-3.57l3.5-.19v-1c0-1.49-1-2.38-2.68-2.38a2.55,2.55,0,0,0-2.81,1.93h-2c.14-2.11,2-3.73,4.83-3.73s4.67,1.55,4.67,4V17H51.35v-2.1h0a4.42,4.42,0,0,1-3.91,2.31C45,17.16,43.37,15.66,43.37,13.47Zm7.91-1.19v-1l-3.26.2c-1.64.1-2.58.83-2.58,2s1,1.92,2.44,1.92a3.21,3.21,0,0,0,3.4-3v-.11ZM56,0h2V16.91H56Z"/></g></g></svg>