<svg xmlns="http://www.w3.org/2000/svg" viewBox="0 0 116.7 94.32"><defs><style>.cls-1{fill:#fff;}.cls-2{fill:#434745;}.cls-3{fill:#5f6665;}.cls-4{fill:#3626d6;}.cls-5{fill:#86a3e5;}.cls-6{fill:#8080ff;}.cls-7{fill:#dfecfb;}</style></defs><title>Asset 4</title><g id="Layer_2" data-name="Layer 2"><g id="Auto"><g id="Auto-2" data-name="Auto"><path class="cls-1" d="M13.42,52.93c-1.62-.93-2.93-.18-2.94,1.67a6.43,6.43,0,0,0,2.92,5.06c1.62.93,2.93.18,2.94-1.67A6.46,6.46,0,0,0,13.42,52.93Z"/><path class="cls-2" d="M15.74,40.91c1.56-.91,3.73-.78,6.12.6,4.76,2.74,8.59,9.4,8.58,14.86,0,2.71-1,4.62-2.51,5.52L19.5,66.78C21.05,65.89,22,64,22,61.26c0-5.46-3.83-12.11-8.58-14.86C11,45,8.88,44.9,7.31,45.8Z"/><path class="cls-3" d="M22,61.26c0,5.46-3.89,7.67-8.64,4.92S4.79,56.79,4.8,51.33s3.88-7.67,8.64-4.93S22,55.8,22,61.26Zm-8.63,1.81c3.25,1.88,5.9.37,5.91-3.37a13,13,0,0,0-5.87-10.18c-3.26-1.88-5.9-.37-5.91,3.37a12.94,12.94,0,0,0,5.87,10.18"/><path class="cls-4" d="M19.3,59.7c0,3.74-2.66,5.25-5.91,3.37A12.94,12.94,0,0,1,7.52,52.89c0-3.74,2.65-5.25,5.91-3.37A13,13,0,0,1,19.3,59.7Zm-5.9,0c1.62.93,2.93.18,2.94-1.67A6.46,6.46,0,0,0,13.42,53c-1.62-.93-2.93-.18-2.94,1.67A6.43,6.43,0,0,0,13.4,59.7"/><path class="cls-1" d="M59,79.3C57.35,78.36,56,79.11,56,81A6.4,6.4,0,0,0,59,86c1.62.94,2.93.19,2.94-1.67A6.46,6.46,0,0,0,59,79.3Z"/><path class="cls-2" d="M61.29,67.27c1.56-.91,3.73-.78,6.12.6C72.16,70.62,76,77.27,76,82.73c0,2.72-1,4.62-2.51,5.52l-8.43,4.9c1.55-.9,2.51-2.81,2.51-5.52,0-5.46-3.82-12.12-8.57-14.86-2.4-1.38-4.56-1.51-6.13-.6Z"/><path class="cls-3" d="M67.6,87.63c0,5.46-3.88,7.66-8.63,4.92s-8.6-9.4-8.58-14.86S54.27,70,59,72.77,67.6,82.17,67.6,87.63ZM59,89.43c3.25,1.88,5.9.37,5.91-3.37A13,13,0,0,0,59,75.89c-3.26-1.88-5.91-.37-5.92,3.37A12.91,12.91,0,0,0,59,89.43"/><path class="cls-4" d="M64.85,86.06c0,3.74-2.66,5.25-5.91,3.37a12.91,12.91,0,0,1-5.88-10.17c0-3.74,2.66-5.25,5.92-3.37A13,13,0,0,1,64.85,86.06Zm-5.9,0c1.62.94,2.93.19,2.94-1.67a6.45,6.45,0,0,0-2.92-5C57.35,78.4,56,79.15,56,81A6.4,6.4,0,0,0,59,86"/><path class="cls-5" d="M37.5,11.2a3.4,3.4,0,0,1,1.76-.43l4.55.09,56.66,32.71L64.86,64.26,8.2,31.55l-4.55-.08a3.16,3.16,0,0,0-1.75.43Z"/><path class="cls-6" d="M64.86,64.26,76.22,74a14.27,14.27,0,0,1,4.87,10v9.56a.76.76,0,0,1-.32.71l35.61-20.69a.78.78,0,0,0,.32-.71V63.32a14.3,14.3,0,0,0-4.87-10l-11.36-9.75Z"/><path class="cls-4" d="M0,46.75a2.44,2.44,0,0,0,1.1,1.92l3.72,2.14c.25-5.08,4-7.06,8.62-4.41s8.34,9,8.57,14.33L50.37,77.11c.28-5,4-7,8.61-4.34S67.3,81.69,67.6,87L80,94.17a.75.75,0,0,0,.79.07l.1-.07.09-.11h0a.54.54,0,0,0,.07-.13v-.15h0V84a14.27,14.27,0,0,0-4.87-10L64.82,64.23,8.2,31.55l-4.55-.09H3.31a2.76,2.76,0,0,0-.4.06l-.22.05a2,2,0,0,0-.42.13l-.18.09L2,31.85H2C.78,32.54.08,34,.08,36Z"/><path class="cls-6" d="M53.6.31a3.49,3.49,0,0,1,3.46.34l32.88,19L54.33,40.34l-32.88-19A3.47,3.47,0,0,0,18,21Z"/><path class="cls-6" d="M90,19.64a10.55,10.55,0,0,1,4.22,5.25l7.62,19.85L66.18,65.43,58.6,45.58a10.64,10.64,0,0,0-4.22-5.25Z"/><path class="cls-7" d="M98.81,43.69,91.92,25.75a9.23,9.23,0,0,0-2.13-3.24L58.45,40.73a14.3,14.3,0,0,1,2.36,4l6.6,17.21Z"/><path class="cls-4" d="M21.46,21.34c-1.75-1-3.36-.86-4.23.38l-7.71,11L66.18,65.43,58.6,45.58a10.64,10.64,0,0,0-4.22-5.25Z"/><polygon class="cls-2" points="92.04 77.8 92.06 85.25 108.44 75.79 108.42 68.34 92.04 77.8"/><polygon class="cls-1" points="81.07 90.26 89.29 85.52 89.28 81.36 81.09 86.08 81.07 90.26"/><polygon class="cls-1" points="109.6 73.67 116.65 69.59 116.64 65.43 109.61 69.49 109.6 73.67"/><path class="cls-5" d="M53.14,42.41l-13.82-8V47.13L61.5,59.93l-5.19-13.5A8.22,8.22,0,0,0,53.14,42.41Z"/><path class="cls-5" d="M13,32l22.18,12.8V32L20.26,23.4a2.11,2.11,0,0,0-1-.35H19.2Z"/></g></g></g></svg>