<?xml version="1.0" encoding="utf-8"?>
<!-- Generator: Adobe Illustrator 22.1.0, SVG Export Plug-In . SVG Version: 6.00 Build 0)  -->
<svg version="1.1" id="Layer_1" xmlns="http://www.w3.org/2000/svg" xmlns:xlink="http://www.w3.org/1999/xlink" x="0px" y="0px"
	 width="124px" height="86px" viewBox="0 0 124 86" style="enable-background:new 0 0 124 86;" xml:space="preserve">
<style type="text/css">
	.st0{fill:url(#SVGID_1_);}
</style>
<g id="Layer_2_2_">
	<g id="ESSENTIA_-_LOGO_1_">
		
			<linearGradient id="SVGID_1_" gradientUnits="userSpaceOnUse" x1="0" y1="-488.7849" x2="122.7211" y2="-488.7849" gradientTransform="matrix(1 0 0 -1 0 -449.69)">
			<stop  offset="0" style="stop-color:#15FF93"/>
			<stop  offset="1" style="stop-color:#0088FF"/>
		</linearGradient>
		<path class="st0" d="M65.1,44l-8.4-2l-3.8-13.4l38.5,9c0.8-8.2-7.9-15.7-21-18.1s-27.3,0.8-34.5,7.9l-16.7-3.5
			C30.8,10.4,57.9,4.6,80.8,10.7s33.9,21.9,24.9,36L98,51.5L65.1,44z M36.5,3.3C13.2,9.5-1.3,23.8,0.1,39s18.2,28.3,42.4,32.9
			l30.2,6.3l10-6l0.4-0.6l-1.2-0.2l-35.3-7.5C22.6,59.3,9,44.3,15.4,29.7L32,33.2c-3,9,5.5,17.8,20,20.6l33.4,7.4L97,63.7l20.5-12.3
			c10.2-13.9,5.2-30.1-12.6-40.7C87-0.1,59.8-3,36.5,3.3z"/>
	</g>
</g>
</svg>
