<svg xmlns="http://www.w3.org/2000/svg" viewBox="0 0 553.31 336.46"><defs><style>.cls-1{fill:#bbd1e6;}.cls-2{fill:#f6f8fb;}</style></defs><title>Asset 3</title><g id="Layer_2" data-name="Layer 2"><g id="Platform_2" data-name="Platform 2"><path class="cls-1" d="M4.57,163.93,264.78,7.8c6.25-3.73,16.38-3.73,22.63,0L547.62,163.93c6.25,3.75,6.25,9.83,0,13.58L287.41,333.65c-6.25,3.75-16.38,3.75-21.63,0L5.57,177.51C-1.68,173.76-1.68,167.68,4.57,163.93Z"/><path class="cls-2" d="M5.57,158.93,265.78,2.8c6.25-3.73,16.38-3.73,22.63,0L548.62,158.93c6.25,3.75,6.25,9.83,0,13.58L288.41,328.65c-6.25,3.75-16.38,3.75-22.63,0L5.57,172.51C-.68,168.76-.68,162.68,5.57,158.93Z"/></g></g></svg>