<svg xmlns="http://www.w3.org/2000/svg" viewBox="0 0 79.99 21.44"><defs><style>.cls-1{fill:#c6c6c6;}</style></defs><title>Asset 51</title><g id="Layer_2" data-name="Layer 2"><g id="text_-_physical" data-name="text - physical"><path id="physical" class="cls-1" d="M11.1,10.82c0,3.82-2.1,6.3-5.17,6.3a4.27,4.27,0,0,1-3.88-2.19H2V21H0V4.72H1.94V6.79h0A4.41,4.41,0,0,1,5.88,4.51C9,4.51,11.1,7,11.1,10.82ZM9,10.82C9,8.06,7.65,6.31,5.48,6.31S2,8.11,2,10.82s1.41,4.51,3.49,4.51S9,13.58,9,10.82ZM13.25,0h2V6.67h.05a4,4,0,0,1,3.86-2.16c2.68,0,4.29,1.81,4.29,4.53v7.87h-2V9.41c0-1.93-1-3.09-2.88-3.09a3.15,3.15,0,0,0-3.29,3,2.46,2.46,0,0,0,0,.47v7.1h-2Zm13,21.4V19.69a3.55,3.55,0,0,0,.8.06c1.14,0,1.77-.55,2.24-2l.28-.86L25,4.69H27.2l3.37,10.15h0L33.94,4.69h2.15l-4.79,13c-1,2.85-2.06,3.7-4.26,3.7A4.73,4.73,0,0,1,26.2,21.4ZM42.08,4.51c2.52,0,4.37,1.5,4.46,3.57H44.6c-.14-1.18-1.09-1.9-2.59-1.9s-2.47.74-2.47,1.8c0,.85.64,1.41,2,1.76l1.89.46c2.46.62,3.35,1.51,3.35,3.3,0,2.12-2,3.62-4.85,3.62-2.67,0-4.53-1.45-4.75-3.61h2c.23,1.27,1.19,2,2.84,2s2.67-.7,2.67-1.81c0-.86-.5-1.33-1.87-1.69l-2.15-.56c-2.14-.55-3.2-1.65-3.2-3.31C37.53,6,39.4,4.51,42.08,4.51Zm6.69-3.1a1.27,1.27,0,1,1,1.28,1.26h0A1.28,1.28,0,0,1,48.77,1.41ZM49,4.72h2V16.91H49Zm12.92,4a3,3,0,0,0-3.11-2.41c-2.11,0-3.54,1.74-3.54,4.51s1.45,4.51,3.56,4.51A2.94,2.94,0,0,0,62,13h2a4.86,4.86,0,0,1-5.12,4.13c-3.38,0-5.63-2.38-5.63-6.3s2.24-6.31,5.6-6.31a4.87,4.87,0,0,1,5.13,4.21Zm3.4,4.75c0-2.09,1.61-3.4,4.42-3.57l3.49-.19v-1c0-1.49-1-2.38-2.67-2.38a2.55,2.55,0,0,0-2.81,1.93h-2c.14-2.11,1.94-3.73,4.83-3.73s4.66,1.55,4.66,4V17H73.33v-2.1h0a4.42,4.42,0,0,1-3.88,2.31C67,17.16,65.34,15.66,65.34,13.47Zm7.91-1.19v-1l-3.26.2c-1.64.1-2.57.83-2.57,2s1,1.92,2.43,1.92a3.21,3.21,0,0,0,3.4-3v-.11ZM78,0h2V16.91H78Z"/></g></g></svg>