<?xml version="1.0" encoding="utf-8"?>
<!-- Generator: Adobe Illustrator 22.1.0, SVG Export Plug-In . SVG Version: 6.00 Build 0)  -->
<svg version="1.1" id="Layer_1" xmlns="http://www.w3.org/2000/svg" xmlns:xlink="http://www.w3.org/1999/xlink" x="0px" y="0px"
	 width="130px" height="89px" viewBox="0 0 130 89" style="enable-background:new 0 0 130 89;" xml:space="preserve">
<style type="text/css">
	.st0{fill:#5E5EEF;}
	.st1{fill:url(#SVGID_1_);}
</style>
<g id="Layer_2_1_">
	<g id="ESSENTIA_-_LOGO">
		<path class="st0" d="M124.6,45.9c0-0.3,0-0.5,0-0.8v-5.3c0.1-9.6-6.1-19-17.9-26.1C88.8,3,61.5,0,38.2,6.3
			C15.6,12.4,1.2,26,1.6,40.7v6.7c0,0.6,0,1.1,0.1,1.7c1.3,15.3,18.3,28.4,42.5,33l30.2,6.4l10-6l0.4-0.6v-7l-36.6-7.8
			c-18-3.4-30.2-12.8-32.4-23.4c0.3-1.3,0.7-2.6,1.2-3.9l16.1,3.4v3.4C32.9,54.4,41,61.5,53.7,64l33.4,7.4l11.7,2.6l20.6-12.3
			c3.3-4.3,5.1-9.6,5.2-15V46C124.6,46,124.6,45.9,124.6,45.9z M107.6,49.9l-7.8,4.7l-32.9-7.5l-8.5-1.9l-1.7-6l36.5,8.5
			c0-0.5,0-8.2,0-8.3c-0.2-7.7-8.6-14.5-21-16.8c-13.1-2.4-27.3,0.8-34.5,7.9l-10.4-2.1c13.5-9.3,35.9-12.7,55.4-7.5
			c15.7,4.2,25.8,12.9,27.8,22.5C109.8,45.6,108.9,47.9,107.6,49.9L107.6,49.9z"/>
		
			<linearGradient id="SVGID_1_" gradientUnits="userSpaceOnUse" x1="1.5887" y1="709.9569" x2="124.6129" y2="709.9569" gradientTransform="matrix(1 0 0 1 0 -667.69)">
			<stop  offset="1.000000e-02" style="stop-color:#73DFD4"/>
			<stop  offset="1" style="stop-color:#1B69F5"/>
		</linearGradient>
		<path class="st1" d="M66.9,47.1l-8.5-1.9l-3.8-13.5l38.6,9c0.8-8.2-7.9-15.7-21-18.1s-27.3,0.8-34.6,7.9L20.8,27
			C32.5,13.5,59.6,7.7,82.6,13.8s34,21.9,25,36.1l-7.8,4.7L66.9,47.1z M38.2,6.3C14.9,12.6,0.3,26.9,1.7,42.1s18.3,28.4,42.5,33
			l30.2,6.4l10-6l0.4-0.6l-1.2-0.3l-35.4-7.5c-24-4.6-37.6-19.6-31.2-34.3l16.7,3.5c-3,9,5.5,17.8,20,20.6l33.4,7.4l11.7,2.6
			l20.6-12.4c10.2-13.9,5.2-30.1-12.7-40.8C88.8,3,61.5,0,38.2,6.3z"/>
	</g>
</g>
</svg>
