<svg xmlns="http://www.w3.org/2000/svg" viewBox="0 0 35.17 74.86"><defs><style>.cls-1{fill:#8080ff;}.cls-2{fill:#3626d6;}</style></defs><title>Asset 8</title><g id="Layer_2" data-name="Layer 2"><g id="Status_-_Logo" data-name="Status - Logo"><g id="Status"><path class="cls-1" d="M29.05,38.11l-3-2h0c-5.79,5.06-8.13.43-16.62,3.56S-.93,53.16.38,59.92c.74,3.83,2.31,8.19,4.94,10.75h0a16.19,16.19,0,0,0,5.9,3.84l.95.24a8,8,0,0,0,4.21-.47C31.63,68.65,29.05,38.1,29.05,38.1Z"/><path class="cls-1" d="M34.78,14.92C34,11.18,32.5,6.91,30,4.34h0l0,0a8.37,8.37,0,0,0-.62-.57C25.06-.11,22.6.05,22.6.05h0a8.2,8.2,0,0,0-3.82.52C3.5,6.2,6.1,36.75,6.1,36.75l3,2c5.76-5.1,8.14-.43,16.63-3.58S36.13,21.68,34.78,14.92Z"/><path class="cls-2" d="M25.73,35.17c8.5-3.13,10.4-13.49,9.05-20.25S29.54-.31,21.78,2.57C6.5,8.2,9.1,38.75,9.1,38.75,14.86,33.65,17.24,38.32,25.73,35.17Zm3.32,2.93s2.58,30.55-12.67,36.18c-7.8,2.87-11.69-5.6-13-12.36s.56-17.12,9.05-20.25,10.83,1.5,16.62-3.56Z"/></g></g></g></svg>