<svg xmlns="http://www.w3.org/2000/svg" xmlns:xlink="http://www.w3.org/1999/xlink" viewBox="0 0 64.39 84.99"><defs><style>.cls-1{fill:#86a3e5;}.cls-2{fill:url(#linear-gradient);}</style><linearGradient id="linear-gradient" x1="44.1" y1="-546.57" x2="28.97" y2="-596.89" gradientTransform="matrix(1, 0, 0, -1, 0, -528.81)" gradientUnits="userSpaceOnUse"><stop offset="0" stop-color="#637ddd"/><stop offset="1" stop-color="#79b3eb"/></linearGradient></defs><title>Asset 8</title><g id="Layer_2" data-name="Layer 2"><g id="User"><path class="cls-1" d="M53,58.39l-3.8-2.2c-4.2-2.43-7.61-8.06-7.61-12.57V41a10.2,10.2,0,0,0,3.64-5.28c.08-.41.49-.4.76-.56,1.45-.72,1.74-3.2.65-5.71a3.13,3.13,0,0,1-.4-1.12v-7.2a20.08,20.08,0,0,0-2.71-9.61A23.62,23.62,0,0,0,37.7,5,26.54,26.54,0,0,0,29.42.4c-2.34-.72-4.54-.51-5.9.89-1.2,1.2-1.73,3.2-1.82,5.42V14c.05.52-.34.63-.51.93-1,1.41-.58,4.41,1.08,6.82a4.82,4.82,0,0,1,.65,1.75,37.89,37.89,0,0,0,3.43,8.58v2.71c0,4.52-3.41,6.22-7.61,3.79l-3.81-2.2S8,34.49,3.52,42.1v4.09a8.1,8.1,0,0,0,3.8,6.29L60.58,83.23c2.11,1.21,3.81.37,3.81-1.89V77.25C59.85,64.41,53,58.39,53,58.39Z"/><path class="cls-2" d="M49.43,59.59l-3.8-2.19C41.43,55,38,49.34,38,44.82V42.2a10.17,10.17,0,0,0,3.64-5.29c.08-.4.49-.39.76-.55,1.45-.72,1.74-3.2.65-5.71a3.13,3.13,0,0,1-.4-1.12v-7.2A20.23,20.23,0,0,0,40,12.71a23.58,23.58,0,0,0-5.78-6.53A26.34,26.34,0,0,0,25.9,1.61c-2.34-.72-4.54-.52-5.9.88a8.19,8.19,0,0,0-1.82,5.43v7.33c.05.51-.34.62-.51.93-1,1.41-.58,4.41,1.08,6.82a4.77,4.77,0,0,1,.65,1.74,38.33,38.33,0,0,0,3.42,8.58V36c0,4.52-3.4,6.21-7.6,3.79l-3.81-2.2S4.52,35.69,0,43.31V47.4a8.12,8.12,0,0,0,3.8,6.29L57.06,84.44c2.11,1.21,3.81.36,3.81-1.9V78.45C56.33,65.59,49.43,59.59,49.43,59.59Z"/></g></g></svg>