<svg xmlns="http://www.w3.org/2000/svg" viewBox="0 0 36.86 54.91"><defs><style>.cls-1{fill:#243656;}</style></defs><title>Asset 16</title><g id="Layer_2" data-name="Layer 2"><g id="EOS_-_Logo" data-name="EOS - Logo"><path class="cls-1" d="M18.42,54.91a1,1,0,0,1-.53-.15L.47,43.84a1,1,0,0,1-.36-.39h0A.83.83,0,0,1,0,43.23a1,1,0,0,1,0-.38s0-.05,0-.08L5.7,16.85a1,1,0,0,1,.18-.41L17.61.41A1,1,0,0,1,18.43,0h0a1,1,0,0,1,.81.41L31,16.44a1,1,0,0,1,.18.41l5.68,25.92a.2.2,0,0,0,0,.07h0a1.12,1.12,0,0,1,0,.41h0a.87.87,0,0,1-.07.17h0a1.07,1.07,0,0,1-.37.42L19,54.76a.9.9,0,0,1-.54.15ZM4.48,44l12.16,7.62L14.21,44Zm18.17,0-2.43,7.62L32.38,44Zm-6.34,0,2.12,6.66L20.55,44Zm7-2H34.14L27.19,29.72Zm-7.62,0h5.52l4.66-14.64L18.43,14.26,11,27.35ZM2.72,42H13.58L9.67,29.72ZM28,27.12l5.45,9.62L30,20.9ZM6.86,20.9,3.39,36.74l5.45-9.62ZM19.44,12l7.24,12.76,2.39-7.53L19.44,4.06ZM7.79,17.22l2.4,7.53L17.42,12V4.06Z"/></g></g></svg>