<svg xmlns="http://www.w3.org/2000/svg" viewBox="0 0 90.63 94.69"><defs><style>.cls-1{fill:#00a6c4;}.cls-2{fill:#5cd6e0;}.cls-3{fill:#3e59a3;}</style></defs><title>Asset 12</title><g id="Layer_2" data-name="Layer 2"><g id="Wi-Fi"><path class="cls-1" d="M47.49,90.25,7.4,66.2c-9.87-5.92-9.87-15.53,0-21.45h0c9.87-5.92,25.87-5.92,35.74,0L83.22,68.81c9.87,5.92,9.87,15.52,0,21.44h0C73.36,96.17,57.36,96.17,47.49,90.25Z"/><polygon class="cls-1" points="90.63 79.53 90.63 51 0 27.56 0 55.48 90.63 79.53"/><path class="cls-1" d="M7.4,16.21h0c9.87-5.92,25.87-5.92,35.74,0L83.22,40.27c9.87,5.92,9.87,15.52,0,21.45h0c-9.87,5.92-25.87,5.92-35.74,0L7.39,37.66C-2.47,31.74-2.47,22.14,7.4,16.21Z"/><path class="cls-2" d="M47.49,60.25,7.4,36.2c-9.87-5.92-9.87-15.53,0-21.45s25.87-5.92,35.74,0L83.22,38.81c9.87,5.92,9.87,15.52,0,21.44S57.36,66.17,47.49,60.25Z"/><ellipse class="cls-3" cx="65.82" cy="49.5" rx="2.5" ry="1.5"/><polygon class="cls-3" points="63.32 49.5 64.99 0.5 66.65 0.5 68.32 49.5 63.32 49.5"/><ellipse class="cls-3" cx="65.82" cy="0.5" rx="0.83" ry="0.5"/><path class="cls-3" d="M10,56.09h0c-1-.46-1.62-2.22-1.42-3.93h0c.2-1.71,1.17-2.72,2.15-2.25h0c1,.46,1.62,2.22,1.42,3.93h0C11.9,55.55,10.94,56.56,10,56.09Z"/><path class="cls-3" d="M17,60.09h0c-1-.46-1.62-2.22-1.42-3.93h0c.2-1.71,1.17-2.72,2.15-2.25h0c1,.46,1.62,2.22,1.42,3.93h0C18.9,59.55,17.94,60.56,17,60.09Z"/><path class="cls-3" d="M24,64.09h0c-1-.46-1.62-2.22-1.42-3.93h0c.2-1.71,1.17-2.72,2.15-2.25h0c1,.46,1.62,2.22,1.42,3.93h0C25.9,63.55,24.94,64.56,24,64.09Z"/></g></g></svg>