<svg xmlns="http://www.w3.org/2000/svg" viewBox="0 0 244.27 51.16"><defs><style>.cls-1{fill:#c6c6c6;}</style></defs><title>Asset 50</title><g id="Layer_2" data-name="Layer 2"><g id="text_-_decentralizated_..." data-name="text - decentralizated ..."><path id="decentralizated_..." data-name="decentralizated ..." class="cls-1" d="M0,10.77C0,7,2.17,4.48,5.24,4.49A4.31,4.31,0,0,1,9.11,6.7h0V0h2L11,16.91H9.09V14.85h0a4.36,4.36,0,0,1-4,2.25C2.12,17.09,0,14.59,0,10.77Zm2.09,0c0,2.77,1.34,4.52,3.49,4.53s3.51-1.76,3.53-4.49S7.76,6.29,5.66,6.28,2.14,8,2.13,10.78ZM24,13.49c-.36,2.13-2.43,3.69-5.1,3.68-3.49,0-5.6-2.46-5.58-6.29s2.19-6.34,5.55-6.32,5.31,2.41,5.29,6.1v.78H15.43v.11c0,2.34,1.35,3.88,3.54,3.89a3,3,0,0,0,3-1.92ZM15.45,9.8h6.62a3.26,3.26,0,0,0-3-3.5h-.23a3.43,3.43,0,0,0-3.39,3.47Zm18.91-1a3,3,0,0,0-3.1-2.42c-2.11,0-3.55,1.73-3.56,4.49s1.43,4.52,3.54,4.53a3,3,0,0,0,3.12-2.33h2a4.85,4.85,0,0,1-5.14,4.11c-3.38,0-5.61-2.4-5.6-6.33s2.27-6.29,5.63-6.28a4.87,4.87,0,0,1,5.11,4.23Zm14,4.76c-.36,2.13-2.43,3.69-5.09,3.68-3.49,0-5.6-2.45-5.58-6.29s2.18-6.34,5.55-6.32,5.3,2.41,5.29,6.1v.83H39.75c0,2.34,1.36,3.88,3.55,3.89a3,3,0,0,0,3-1.92ZM39.74,9.91h6.62a3.25,3.25,0,0,0-3-3.49h-.24a3.42,3.42,0,0,0-3.39,3.45Zm10.83-5h1.92v2h0a4.08,4.08,0,0,1,3.87-2.14c2.67,0,4.21,1.74,4.2,4.5v7.91h-2V9.58c0-2-.91-3-2.79-3.06a3.11,3.11,0,0,0-3.2,3,2.64,2.64,0,0,0,0,.4V17.1h-2ZM65.92,2V5h2.36V6.66H65.91V13.9c0,1.11.46,1.62,1.5,1.62h.84v1.71a6.83,6.83,0,0,1-1.28.09c-2.24,0-3.11-.93-3.09-3.27V6.7H62V5h1.82V2.08Zm4.52,3h1.92V7h0a3,3,0,0,1,3-2.19,5.71,5.71,0,0,1,.82.09v2a4,4,0,0,0-1.09-.12,2.58,2.58,0,0,0-2.63,2.53,1.74,1.74,0,0,0,0,.32v7.59h-2Zm6.63,8.78c0-2.09,1.62-3.4,4.43-3.55l3.5-.18v-1c0-1.49-1-2.38-2.66-2.39a2.54,2.54,0,0,0-2.82,1.92h-2c.15-2.11,2-3.72,4.84-3.7S87,6.44,87,8.88v8.43H85.08v-2.1h0a4.41,4.41,0,0,1-3.92,2.29C78.68,17.44,77.06,16,77.07,13.78ZM85,12.63v-1l-3.26.19c-1.64.09-2.58.82-2.59,2s1,1.93,2.43,1.94a3.2,3.2,0,0,0,3.41-3,1.34,1.34,0,0,0,0-.2ZM89.74.37h2V17.29h-2ZM94.42,1.8a1.27,1.27,0,1,1,1.26,1.26A1.26,1.26,0,0,1,94.42,1.8Zm.23,3.31h2L96.59,17.3h-2Zm4.49,10.76,6.79-9H99.19V5.19l9,0V6.72l-6.75,9h6.74v1.67H99.09Zm11-1.94c0-2.09,1.62-3.39,4.43-3.54l3.5-.19v-1c0-1.49-1-2.38-2.66-2.39a2.54,2.54,0,0,0-2.82,1.92h-2c.15-2.11,2-3.72,4.84-3.7s4.66,1.57,4.65,4v8.43h-1.94v-2.1h0a4.41,4.41,0,0,1-3.92,2.29C111.74,17.59,110.13,16.12,110.14,13.93Zm7.91-1.15v-1l-3.26.19c-1.64.1-2.58.82-2.59,2s1,1.92,2.43,1.93a3.2,3.2,0,0,0,3.41-3A.76.76,0,0,0,118.05,12.78Zm7.38-10.47V5.25h2.31V6.93h-2.36v7.24c0,1.12.46,1.62,1.51,1.63a3.56,3.56,0,0,0,.84-.06v1.71a7,7,0,0,1-1.29.09c-2.24,0-3.1-.93-3.09-3.27V6.92h-1.82V5.25h1.81V2.3ZM139.65,14c-.37,2.14-2.44,3.7-5.1,3.68-3.49,0-5.6-2.45-5.58-6.28s2.19-6.34,5.55-6.32,5.31,2.41,5.29,6.1V12h-8.74v.11c0,2.33,1.35,3.88,3.54,3.89a3,3,0,0,0,3-1.92Zm-8.57-3.68h6.63a3.26,3.26,0,0,0-3-3.5h-.23a3.44,3.44,0,0,0-3.4,3.48v0Zm10.18,1.09c0-3.82,2.13-6.29,5.2-6.28a4.28,4.28,0,0,1,3.87,2.21h0V.65h2l0,16.94h-2v-2.1h0a4.35,4.35,0,0,1-4,2.26C143.34,17.74,141.25,15.24,141.26,11.42Zm2.09,0c0,2.77,1.34,4.52,3.49,4.53s3.52-1.77,3.53-4.5S149,6.93,146.89,6.92s-3.53,1.76-3.54,4.51Zm16.12.08c0-3.82,2.13-6.29,5.2-6.28a4.28,4.28,0,0,1,3.87,2.21h.05V.73h2l-.08,16.91h-2V15.59h0a4.36,4.36,0,0,1-4,2.25C161.55,17.82,159.46,15.32,159.47,11.5Zm2.09,0c0,2.77,1.34,4.52,3.5,4.53s3.51-1.76,3.52-4.49S167.19,7,165.1,7s-3.53,1.75-3.54,4.5Zm11.3,2.71c0-2.08,1.62-3.39,4.43-3.54l3.49-.18v-1c0-1.49-1-2.38-2.66-2.39A2.54,2.54,0,0,0,175.3,9h-2c.15-2.11,2-3.72,4.84-3.7s4.66,1.56,4.65,4v8.43h-1.93V15.59h0a4.45,4.45,0,0,1-3.93,2.29C174.47,17.88,172.85,16.41,172.86,14.21Zm7.91-1.14v-1l-3.26.19c-1.64.09-2.58.82-2.59,2s1,1.93,2.43,1.94a3.21,3.21,0,0,0,3.39-3v-.11Zm7.37-10.48v3h2.37V7.27h-2.37v7.24c0,1.11.46,1.62,1.5,1.62a6,6,0,0,0,.85,0v1.71a7,7,0,0,1-1.29.09c-2.24,0-3.1-.93-3.09-3.27V7.31H184.3V5.63h1.81V2.69ZM191.9,14.3c0-2.08,1.62-3.39,4.43-3.54l3.5-.18v-1c0-1.49-1-2.39-2.66-2.39a2.54,2.54,0,0,0-2.82,1.92h-2c.15-2.11,2-3.72,4.84-3.71s4.66,1.57,4.65,4v8.42h-1.93V15.69h0A4.45,4.45,0,0,1,196,18C193.51,18,191.89,16.49,191.9,14.3Zm7.91-1.15v-1l-3.26.18c-1.64.1-2.58.82-2.59,2s1,1.93,2.43,1.93a3.2,3.2,0,0,0,3.41-3,.66.66,0,0,0,0-.14ZM0,42.22c0-2.08,1.62-3.39,4.44-3.54l3.49-.18v-1c0-1.49-1-2.39-2.67-2.39A2.54,2.54,0,0,0,2.44,37h-2c.15-2.11,2-3.72,4.84-3.71s4.66,1.57,4.65,4v8.42H8V43.59H8a4.48,4.48,0,0,1-3.93,2.29C1.62,45.89,0,44.41,0,42.22Zm7.92-1.15v-1l-3.25.18c-1.65.1-2.59.82-2.59,2s1,1.93,2.43,1.94a3.22,3.22,0,0,0,3.41-3Zm4.66-7.48H14.5v1.94h0a4.09,4.09,0,0,1,3.88-2.14c2.67,0,4.21,1.75,4.2,4.51v7.91h-2V38.27c0-2-.92-3.06-2.79-3.06a3.09,3.09,0,0,0-3.2,3,2.81,2.81,0,0,0,0,.41v7.17h-2Zm12,6.1c0-3.82,2.13-6.3,5.2-6.28a4.28,4.28,0,0,1,3.87,2.2h0v-6.7h2l.07,16.92h-2V43.77h0a4.4,4.4,0,0,1-4,2.25C26.68,46,24.58,43.51,24.6,39.69Zm2.09,0c0,2.76,1.34,4.51,3.49,4.52s3.51-1.76,3.53-4.49-1.39-4.52-3.49-4.53-3.48,1.75-3.48,4.51Zm16.62-9.33a1.28,1.28,0,1,1,1.29,1.27h0A1.28,1.28,0,0,1,43.31,30.36Zm.23,3.32h2l0,12.19h-2Zm4.8,0h1.92v2h0a4.08,4.08,0,0,1,3.87-2.14c2.67,0,4.21,1.74,4.2,4.5V46h-2V38.42c0-2-.91-3-2.79-3.06a3.11,3.11,0,0,0-3.2,3,2.64,2.64,0,0,0,0,.4v7.17h-2Zm15.4-2.87v2.94H66.1v1.68H63.74v7.24c0,1.11.46,1.62,1.5,1.62a4.26,4.26,0,0,0,.84-.05V46a7,7,0,0,1-1.29.09c-2.24,0-3.11-.93-3.09-3.27V35.44H59.88V33.76H61.7V30.82Zm14.17,11.7c-.36,2.13-2.43,3.69-5.09,3.68-3.49,0-5.6-2.45-5.59-6.28s2.19-6.34,5.51-6.34S78.05,36,78,39.7v.77H69.3v.12c0,2.33,1.35,3.87,3.54,3.88a3,3,0,0,0,3-1.92Zm-8.56-3.68H76a3.26,3.26,0,0,0-3-3.5h-.23a3.43,3.43,0,0,0-3.39,3.47Zm10.8-5h1.92v2h0a3,3,0,0,1,3-2.19,5.69,5.69,0,0,1,.82.08v2a5,5,0,0,0-1.09-.12,2.59,2.59,0,0,0-2.64,2.54c0,.1,0,.21,0,.31v7.59h-2ZM86.34,40c0-3.89,2.3-6.29,5.67-6.28s5.63,2.44,5.61,6.33-2.3,6.3-5.67,6.28S86.32,43.85,86.34,40Zm9.21,0c0-2.87-1.39-4.52-3.55-4.53s-3.58,1.63-3.59,4.5,1.4,4.52,3.55,4.53,3.57-1.59,3.59-4.46Zm15.25.11c0,3.82-2.12,6.3-5.19,6.28a4.28,4.28,0,0,1-3.87-2.21h0V50.2h-2L99.82,34h1.93V36h0a4.39,4.39,0,0,1,4-2.26C108.74,33.77,110.82,36.26,110.8,40.08Zm-2.08,0c0-2.75-1.34-4.52-3.51-4.53s-3.5,1.79-3.51,4.5,1.38,4.52,3.47,4.53,3.57-1.74,3.57-4.51Zm14.21,2.66c-.36,2.13-2.43,3.69-5.09,3.68-3.49,0-5.6-2.45-5.58-6.28s2.18-6.35,5.54-6.33,5.31,2.41,5.3,6.11v.77h-8.74v.12c0,2.33,1.35,3.87,3.55,3.88a2.93,2.93,0,0,0,3-1.92Zm-8.56-3.69H121a3.26,3.26,0,0,0-3-3.45h-.2A3.43,3.43,0,0,0,114.37,39.05Zm10.8-5h1.93v2h0a3,3,0,0,1,3-2.19,5.71,5.71,0,0,1,.82.09v2a4,4,0,0,0-1.09-.12,2.57,2.57,0,0,0-2.64,2.52,1.82,1.82,0,0,0,0,.33v7.59h-2Zm6.63,8.78c0-2.09,1.62-3.4,4.44-3.55l3.49-.18v-1c0-1.49-1-2.38-2.67-2.39a2.56,2.56,0,0,0-2.82,1.92h-2c.15-2.11,2-3.72,4.85-3.7s4.66,1.57,4.65,4v8.43H139.8v-2.1h0a4.47,4.47,0,0,1-3.93,2.29C133.41,46.49,131.79,45,131.8,42.83Zm7.92-1.15v-1l-3.26.19c-1.64.1-2.58.82-2.58,2s1,1.92,2.43,1.93a3.19,3.19,0,0,0,3.42-3,.86.86,0,0,0,0-.16Zm7.37-10.47v2.94h2.36v1.68h-2.37v7.24c0,1.11.46,1.62,1.5,1.63a3.52,3.52,0,0,0,.84-.06v1.71a7,7,0,0,1-1.29.09c-2.24,0-3.1-.93-3.09-3.27V35.82h-1.82V34.15H145V31.21Zm4.4-.35a1.25,1.25,0,0,1,1.25-1.27h0a1.27,1.27,0,1,1-1.27,1.27h0Zm.23,3.32h2l0,12.19h-2Zm4.17,6.11c0-3.89,2.3-6.3,5.67-6.28s5.63,2.44,5.61,6.33-2.3,6.29-5.67,6.28S155.87,44.17,155.89,40.29Zm9.21,0c0-2.87-1.39-4.52-3.55-4.53S158,37.39,158,40.26s1.4,4.52,3.55,4.53,3.57-1.59,3.59-4.46Zm4.15-6h1.92v2h.05a4.08,4.08,0,0,1,3.88-2.14c2.67,0,4.21,1.74,4.19,4.51v7.91h-2V39c0-2-.91-3.05-2.78-3.06a3.09,3.09,0,0,0-3.2,3,3,3,0,0,0,0,.42v7.17h-2Zm17-.14c2.52,0,4.36,1.52,4.45,3.59h-2c-.13-1.18-1.08-1.91-2.58-1.91s-2.47.72-2.48,1.79c0,.84.64,1.41,2,1.77l1.89.46c2.45.63,3.34,1.53,3.33,3.32,0,2.12-2,3.61-4.87,3.6-2.67,0-4.52-1.47-4.73-3.63h2c.22,1.27,1.18,2,2.83,2s2.68-.69,2.68-1.8c0-.86-.5-1.33-1.87-1.7l-2.14-.56c-2.14-.56-3.19-1.67-3.18-3.33C181.68,35.59,183.55,34.11,186.23,34.12Zm11.88-4.46h2l0,16.93h-2Zm4.24,13.49c0-2.09,1.62-3.39,4.43-3.54l3.5-.19v-1c0-1.48-1-2.38-2.66-2.39A2.56,2.56,0,0,0,204.8,38h-2c.15-2.11,2-3.72,4.84-3.71s4.66,1.57,4.65,4v8.43h-1.93v-2.1h0a4.41,4.41,0,0,1-3.92,2.29C204,46.81,202.34,45.34,202.35,43.15ZM210.26,42V41l-3.26.18c-1.64.1-2.58.82-2.59,2s1,1.93,2.43,1.93a3.2,3.2,0,0,0,3.41-3,.66.66,0,0,0,0-.14ZM215,51.14V49.43a3.51,3.51,0,0,0,.79.06c1.14,0,1.78-.54,2.25-2l.29-.85-4.45-12.22H216l3.34,10.17h0l3.42-10.13h2.14l-4.85,13c-1.06,2.84-2.07,3.69-4.27,3.69A5.89,5.89,0,0,1,215,51.14Zm21.31-7.88c-.36,2.13-2.43,3.69-5.09,3.68-3.5,0-5.61-2.45-5.59-6.29s2.19-6.34,5.55-6.32,5.31,2.41,5.29,6.1v.78h-8.74v.11c0,2.34,1.35,3.88,3.54,3.89a2.93,2.93,0,0,0,3-1.92Zm-8.55-3.67h6.62a3.26,3.26,0,0,0-3-3.49h-.22a3.42,3.42,0,0,0-3.39,3.45Zm10.79-5h1.92v2h0a3,3,0,0,1,3-2.19,5.71,5.71,0,0,1,.82.09v2a4,4,0,0,0-1.09-.12,2.58,2.58,0,0,0-2.63,2.53,1.74,1.74,0,0,0,0,.32v7.59h-2Z"/></g></g></svg>