<svg xmlns="http://www.w3.org/2000/svg" viewBox="0 0 59.96 82.58"><defs><style>.cls-1{fill:#43760c;}.cls-2{fill:#97c554;}.cls-3{fill:#709b30;}</style></defs><title>Ресурс 1</title><g id="Слой_2" data-name="Слой 2"><g id="Bitfinex_-_Logo" data-name="Bitfinex - Logo"><g id="Bitfinex"><g id="logo"><path id="Path_1_Copy_9" data-name="Path 1 Copy 9" class="cls-1" d="M8,69.7c1,1.56-.6,7.49,3.56,10.31,6.53,4.41,22.4,4.26,34.05-9.39C61.16,52.27,60.77,12.48,59.28.47,58.76,2.22,40.74,62.15,8,69.7ZM59.28.46C59.09.34,39.13-3.79,19.4,15.51,7.15,27.49,5.54,45,6.09,56.73,34.77,51.85,58.63,1.83,59.28.46Z"/><path id="Path_1_Copy_8" data-name="Path 1 Copy 8" class="cls-1" d="M59.28.46c-.19-.12-25.06-4.29-44.79,15C2.24,27.46,5.54,45,6.09,56.73,34.77,51.85,58.63,1.83,59.28.46Z"/></g></g><path class="cls-1" d="M.09,57.73s3.9-.56,6-1,4.52-4.38,4.52-4.38L49.52,15.44,54,21.6,59.28,6.77V.46L46.44,2.6l-34,36.5Z"/><g id="Bitfinex-2" data-name="Bitfinex"><g id="logo-2" data-name="logo"><path id="Path_1_Copy_9-2" data-name="Path 1 Copy 9" class="cls-2" d="M2,70.7c2.49,4,16.16,23.18,37.61.92C55.16,53.27,54.77,13.48,53.28,1.47,52.76,3.22,34.74,63.15,2,70.7ZM53.28,1.46c-.19-.12-20.15-4.25-39.88,15.05C1.15,28.49-.46,46,.09,57.73,28.77,52.85,52.63,2.83,53.28,1.46Z"/><path id="Path_1_Copy_8-2" data-name="Path 1 Copy 8" class="cls-3" d="M53.28,1.46c-.19-.12-20.15-4.25-39.88,15.05C1.15,28.49-.46,46,.09,57.73,28.77,52.85,52.63,2.83,53.28,1.46Z"/></g></g></g></g></svg>