<svg xmlns="http://www.w3.org/2000/svg" viewBox="0 0 35.22 44.15"><defs><style>.cls-1{fill:#00a6c4;}.cls-2{fill:#00cae5;}</style></defs><title>Asset 20</title><g id="Layer_2" data-name="Layer 2"><g id="Gnosis_-_Logo" data-name="Gnosis - Logo"><path class="cls-1" d="M34.36,19.57l-.19-.7-5.41,2.74c0,.09,0,.19.08.28l-10.13,5L18,25.36l16.46-8.74-.36-.92c-2.33-6-6.31-10.94-10.9-13.59C18.89-.38,14.49-.66,10.79,1.25,7.4,2.86,5.61,3.92,5.61,3.92l.61,1.4-1.57.75-.36.4A16,16,0,0,0,.35,14.8C-1.47,25,3.91,37.3,12.35,42.16a14.05,14.05,0,0,0,6.28,2,11.69,11.69,0,0,0,4.43-.67,37.36,37.36,0,0,0,4.76-2.29c3.48-1.7,6.11-5.37,7-10.59v0s0-.05,0-.07A26.25,26.25,0,0,0,34.36,19.57ZM29,25.64A8.52,8.52,0,0,1,28.26,28c0,.08-.09.14-.13.21a5.47,5.47,0,0,1-2.4-.94ZM13.09,4a13.67,13.67,0,0,1,5.82,1.91c3.94,2.27,7.37,6.46,9.55,11.46L19.81,22,12,4A9.39,9.39,0,0,1,13.09,4Zm-1,15,.63,1.44a7.21,7.21,0,0,1-1.42-1ZM7.92,11.42a8.51,8.51,0,0,1,.19-1.7L8.67,11S8,11.39,7.92,11.42Z"/><path class="cls-2" d="M30.17,20.87l-1.41.74a8.59,8.59,0,0,1-.5,6.41c-1.68,3-5.28,3-8,0a10.55,10.55,0,0,1-1-1.38L14.75,29l-2.62-5.89c-1.71.35-3.7-.41-5.39-2.23C3.92,17.78,3.06,12.8,4.81,9.76a4.89,4.89,0,0,1,.94-1.18L4.65,6.07l-.36.4A16,16,0,0,0,.35,14.8C-1.47,25,3.91,37.3,12.35,42.16h0c8.41,4.86,16.7.51,18.53-9.68a26.25,26.25,0,0,0-.52-10.91Z"/><path class="cls-2" d="M7.31,11.67a3.32,3.32,0,0,0-1.07,2,5.92,5.92,0,0,0,2.52,5.74,2.56,2.56,0,0,0,2.1.31l-3.55-8"/><path class="cls-2" d="M26.79,22.91a5.23,5.23,0,0,1,.15,2.36c-.36,2-2,2.93-3.69,1.93a5.09,5.09,0,0,1-1.67-1.72Z"/><path class="cls-2" d="M7.64,5.12l8.21,19L28.46,17.4c-2.18-5-5.61-9.19-9.55-11.46h0C15,3.68,11,3.38,7.66,5.1m7.76,21.58L5.61,3.92l.61-.36c3.81-2.25,8.44-2.07,13,.55h0c4.59,2.65,8.57,7.62,10.9,13.59l.36.92-15.07,8"/></g></g></svg>