<svg xmlns="http://www.w3.org/2000/svg" viewBox="0 0 87.3 55.48"><defs><style>.cls-1{fill:#393939;}.cls-2{fill:#8c8c8c;}.cls-3{fill:#c0e0ff;}</style></defs><title>Asset 2</title><g id="Layer_2" data-name="Layer 2"><g id="Phone"><path class="cls-1" d="M87,32.5a1,1,0,0,0-.65-.65.65.65,0,0,0-.17-.08L33.87.4a3.46,3.46,0,0,0-3.22,0L.74,18.35a1,1,0,0,0-.72.72c0,.14,0,3.83,0,3.84H0a1,1,0,0,0,.72.82L53,55.09a3.48,3.48,0,0,0,3.23,0l29.91-18C87.89,36.38,87.21,32.67,87,32.5Z"/><path class="cls-2" d="M86.32,33.71,56.4,51.65a3.4,3.4,0,0,1-3.22,0L.9,20.29a1,1,0,0,1-.72-1.22,1,1,0,0,1,.72-.72L30.81.4A3.48,3.48,0,0,1,34,.4L86.32,31.77a1,1,0,0,1,0,1.94Z"/><polygon class="cls-3" points="76.31 28.76 48.14 45.66 5.07 19.82 33.23 2.92 76.31 28.76"/><ellipse class="cls-1" cx="66.89" cy="39.88" rx="3.51" ry="2.11"/></g></g></svg>