<?xml version="1.0" encoding="UTF-8"?>
<svg width="20px" height="19px" viewBox="0 0 20 19" version="1.1" xmlns="http://www.w3.org/2000/svg" xmlns:xlink="http://www.w3.org/1999/xlink">
    <!-- Generator: sketchtool 49 (51002) - http://www.bohemiancoding.com/sketch -->
    <title>F306176B-F679-40C9-AAD5-66AD0E9B8C1D</title>
    <desc>Created with sketchtool.</desc>
    <defs></defs>
    <g id="Design" stroke="none" stroke-width="1" fill="none" fill-rule="evenodd">
        <g id="Akasha-screen-2" transform="translate(-674.000000, -31.000000)" fill="#273951" fill-rule="nonzero">
            <g id="header-title" transform="translate(674.000000, 28.000000)">
                <g id="Triskele-Symbol-spiral" transform="translate(0.000000, 3.000000)">
                    <path d="M15.579719,5.20752918 C15.5410907,5.2054904 15.4954295,5.21554126 15.4609009,5.23310344 C15.4240397,5.2518102 15.3870725,5.28514615 15.363217,5.31916169 C15.3366755,5.3570402 15.3167076,5.40858216 15.3088618,5.45432967 C15.2999557,5.50633662 15.3030304,5.5686448 15.3150466,5.62000792 C15.328759,5.67856044 15.3582338,5.7426928 15.3920203,5.79219597 C15.4303305,5.84838779 15.4866295,5.90461538 15.5415501,5.94424654 C15.6034684,5.98888523 15.6836936,6.02740757 15.7565324,6.04940501 C15.8378532,6.07397775 15.9361025,6.0861747 16.0209574,6.08395708 C16.1148951,6.08148907 16.2224746,6.06085083 16.3113231,6.02987558 C16.4089716,5.99582426 16.5151374,5.938774 16.5985787,5.87718119 C16.6896537,5.80997276 16.7826018,5.71640318 16.8506695,5.62548045 C16.9244979,5.52683179 16.9924242,5.40053432 17.0355408,5.2847527 C17.0820856,5.15985019 17.1144584,5.00830038 17.1245307,4.87520695 C17.1353099,4.73234881 17.1239652,4.56634866 17.0951619,4.42606583 C17.0643442,4.27612558 17.004299,4.10901661 16.9339341,3.97345518 C16.8590101,3.82913055 16.7494162,3.67579233 16.6383732,3.55765001 C16.5205447,3.43231828 16.3649361,3.30784498 16.2179155,3.21964063 C16.062413,3.12632143 15.868777,3.04469843 15.6941547,2.99741289 C15.5099902,2.94751627 15.2904489,2.92033244 15.0998169,2.92247853 C14.899254,2.92469616 14.6692515,2.95989206 14.4766404,3.01647733 C14.2745225,3.07588829 14.0516944,3.17682611 13.8726191,3.288709 C13.6850971,3.40592135 13.4881037,3.57077693 13.3381851,3.73430908 C13.1815516,3.90520948 13.0283816,4.12672187 12.9222865,4.33364083 C12.8115969,4.54953761 12.7181894,4.8152237 12.6680398,5.05308215 C12.6158051,5.30081261 12.5944588,5.59375407 12.6089135,5.84659938 C12.623969,6.1095671 12.6821411,6.40926874 12.7653349,6.65882338 C12.8517449,6.91799967 12.9912024,7.20196331 13.1421105,7.42887669 C13.2986026,7.66415982 13.5148219,7.90960113 13.7270475,8.0948088 C13.9468715,8.28663359 14.229038,8.47216318 14.4910244,8.59863949 C14.762023,8.72951528 15.0935261,8.83696292 15.3889809,8.89108019 C15.6942961,8.94698586 16.053613,8.96301001 16.3627096,8.93579042 C16.6818079,8.90767662 17.0440228,8.82508788 17.3446375,8.71320499 C17.654653,8.59778105 17.9930478,8.41643634 18.2622792,8.22282314 C18.5397452,8.02327242 18.8278137,7.75046846 19.0438562,7.48435315 C19.2663309,7.21036883 19.4798288,6.8607348 19.6236333,6.53735462 C19.7715374,6.20471048 19.8904969,5.79942115 19.94722,5.43919973 C20.0055334,5.06892746 20.0158885,4.63448705 19.9764827,4.26167524 C19.9360167,3.87877679 19.8309818,3.44526636 19.693044,3.08640414 C19.5514307,2.71802758 19.3324901,2.3170662 19.1007207,1.99894394 C18.8629431,1.67263076 18.5400633,1.33497908 18.2263723,1.08284912 C17.9048001,0.824388202 17.4960051,0.577730782 17.1189114,0.413197121 C16.7325936,0.244621654 16.2631526,0.111277851 15.8467592,0.0505792376 C15.4203995,-0.011585872 14.921201,-0.0164861136 14.4936044,0.0360931217 C14.0560061,0.0898527073 13.5615433,0.2198343 13.1529604,0.387229417 C12.7350473,0.558451729 12.2810152,0.820239093 11.9216629,1.09579721 C11.5542528,1.37750745 11.175074,1.75829557 10.8929076,2.12713712 C10.6045917,2.50406228 10.3306599,2.98185373 10.1493227,3.42180243 C9.96409795,3.87108663 9.81955127,4.41601496 9.75636069,4.89867088 C9.69748177,5.29966803 9.56996969,5.75152754 9.4096607,6.1230517 C9.2533453,6.48527614 9.01966738,6.87765315 8.775281,7.18593916 C8.5371854,7.4863204 8.21872325,7.79510716 7.911323,8.02202054 C7.61201594,8.24296063 7.23509897,8.45113148 6.88910581,8.58511911 C6.55251348,8.71552992 6.1461924,8.81389244 5.78761767,8.8505906 C5.43900924,8.88625148 5.03307691,8.87391146 4.68740182,8.81593122 C4.35162235,8.7596321 3.97417527,8.64352856 3.6647252,8.5001339 C3.36439324,8.36095988 3.03999373,8.15504243 2.78624185,7.94100559 C2.54020501,7.73347857 2.28843579,7.4573124 2.10483323,7.19169784 C1.92697719,6.9343815 1.76103831,6.61139477 1.65622252,6.31584223 C1.55478892,6.02983981 1.48099943,5.68553524 1.45745846,5.38261446 C1.43470561,5.08974454 1.45239049,4.74966062 1.50661847,4.46108288 C1.55898042,4.1824487 1.66090527,3.87022819 1.78398553,3.61541563 C1.90267639,3.36968818 2.07594156,3.10546858 2.2545115,2.90015919 C2.42648317,2.70246841 2.65382436,2.50163004 2.87130881,2.35694772 C3.08045973,2.21784524 3.34181003,2.09011705 3.57987029,2.01199933 C3.80849437,1.93702921 4.08256761,1.88605954 4.32264233,1.87515024 C4.55275076,1.86467016 4.81887216,1.88816986 5.04346731,1.93999796 C5.25834355,1.98960844 5.49788816,2.07985158 5.69194826,2.18561811 C5.87724368,2.28662747 6.07501465,2.43145286 6.22691236,2.5789251 C6.37163575,2.71942254 6.5167479,2.90344986 6.61892014,3.07810592 C6.71607389,3.24414184 6.80258985,3.4501666 6.85199725,3.63651886 C6.89882472,3.8132137 6.92579028,4.02374525 6.92370513,4.20669953 C6.921726,4.37967449 6.89302872,4.57829523 6.84468156,4.74422385 C6.79912638,4.90060237 6.72271809,5.07336271 6.63669691,5.21117754 C6.55587093,5.34065838 6.44288419,5.47682786 6.33000348,5.5787672 C6.22436777,5.67416095 6.08798497,5.76712247 5.96033152,5.82910874 C5.84144276,5.8868386 5.6955531,5.93423144 5.56542574,5.9558712 C5.4447699,5.97597292 5.30273246,5.97958551 5.18140514,5.96420518 C5.06958467,5.95000521 4.9430268,5.91534584 4.84000637,5.86909757 C4.74557391,5.82674804 4.64364906,5.762258 4.56568574,5.69369038 C4.49475538,5.6312749 4.42333023,5.54732696 4.3742409,5.46620471 C4.32992268,5.39295146 4.29122375,5.30070531 4.27160922,5.21715082 C4.25400916,5.14232378 4.24683484,5.05272447 4.25411519,4.97618055 C4.26054734,4.90822099 4.28051528,4.83078286 4.30942462,4.76908274 C4.33490583,4.7147151 4.37505376,4.6568064 4.41831174,4.61552991 C4.45623315,4.57933251 4.50800843,4.54546003 4.55695639,4.5272898 C4.60003767,4.51126565 4.65411014,4.5030032 4.69980669,4.50733115 C4.74083815,4.51122988 4.78784233,4.52696788 4.82230028,4.54989529 C4.8546024,4.57139197 4.88602098,4.60640903 4.9035857,4.64124724 C4.92111508,4.67612122 4.952569,4.71113828 4.98487112,4.73263496 C5.01929373,4.75556237 5.06629791,4.77130037 5.10736472,4.7751991 C5.15306126,4.77952705 5.2070984,4.77122883 5.25017967,4.75524045 C5.29912763,4.73707021 5.35093825,4.70319774 5.38885967,4.66700033 C5.43211765,4.62572385 5.47226558,4.56781515 5.49774679,4.51344751 C5.52665613,4.45174738 5.54658873,4.37430926 5.55305622,4.3063497 C5.56030122,4.22977001 5.5531269,4.1401707 5.53556218,4.06537942 C5.51591232,3.98178917 5.47721339,3.88957878 5.43289516,3.81632554 C5.38384118,3.73520329 5.31238069,3.65125535 5.24145032,3.58883986 C5.163487,3.52027225 5.06156215,3.45578221 4.96716504,3.41343267 C4.86410926,3.36718441 4.73758674,3.33252503 4.62573093,3.31832506 C4.50443894,3.30294474 4.36236616,3.30655733 4.24174567,3.32662328 C4.11158297,3.3482988 3.96572865,3.39569165 3.84680454,3.45342151 C3.71915109,3.51540778 3.58280363,3.60836929 3.47716793,3.70376305 C3.36425187,3.80570238 3.25130048,3.94187187 3.1704745,4.07135271 C3.08441798,4.20916754 3.00800968,4.38192788 2.9624545,4.5383064 C2.91410735,4.70423502 2.88541006,4.90285576 2.88343094,5.07583072 C2.88134579,5.25878499 2.90831134,5.46931654 2.95517416,5.64601139 C3.00458156,5.83236365 3.09106218,6.03838841 3.18821593,6.20442433 C3.29042351,6.37908039 3.43553565,6.56307195 3.58025905,6.70360515 C3.73212142,6.85107739 3.92989238,6.99590278 4.11522314,7.09691214 C4.30924791,7.20267867 4.54882785,7.29292181 4.7637041,7.34253228 C4.98826391,7.39436039 5.25438531,7.41786009 5.48452907,7.40738001 C5.7246038,7.39647071 5.99864169,7.34550104 6.22726578,7.27049515 C6.46536138,7.1924132 6.72667634,7.064685 6.93582726,6.92554676 C7.15331877,6.78090021 7.38067056,6.58006183 7.55264224,6.38237106 C7.73122278,6.17706167 7.90446675,5.91284207 8.0231788,5.66711462 C8.14623786,5.41230205 8.24816271,5.10008155 8.3005388,4.82144737 C8.35475264,4.53286963 8.37245872,4.19278571 8.34969881,3.89991579 C8.32616138,3.59695924 8.25236835,3.25269044 8.15093828,2.96668801 C8.04611543,2.67109971 7.88018715,2.34814875 7.70231344,2.09083241 C7.51871441,1.82521785 7.26694165,1.54905168 7.02089422,1.34152465 C6.76714234,1.12748782 6.44277817,0.921570367 6.14244621,0.78239635 C5.83299614,0.639001687 5.45551371,0.522898151 5.11973424,0.466599024 C4.77409449,0.408618793 4.36812683,0.396278768 4.01951839,0.431939651 C3.66094366,0.468637811 3.25465792,0.567000326 2.91803025,0.697375369 C2.57206183,0.831398767 2.1951378,1.03956962 1.89583781,1.26050971 C1.58842341,1.48742309 1.26997894,1.79620985 1.0318692,2.09659109 C0.787472215,2.4048771 0.553815504,2.79725411 0.397500105,3.15947854 C0.237166379,3.53100271 0.109679031,3.98286222 0.050782442,4.38385936 C-0.00959495521,4.79494314 -0.016267428,5.27659755 0.0314824557,5.68936243 C0.0803986085,6.11224971 0.201026174,6.59036307 0.357281492,6.98567308 C0.517268872,7.39042589 0.762680161,7.83044613 1.02145053,8.17893558 C1.2862643,8.53558017 1.6447224,8.9039925 1.99225999,9.17840603 C2.3477282,9.45911477 2.79875273,9.72616006 3.21422726,9.90335566 C3.63896126,10.0845215 4.15438151,10.2264855 4.61109955,10.2893659 C5.0777839,10.3536056 5.62363317,10.3547859 6.09070627,10.2937654 C6.56781635,10.2314572 7.10634994,10.0856661 7.55094585,9.89974307 C7.92355115,9.75087587 8.37390773,9.63670382 8.77199424,9.59145706 C9.16011446,9.54735489 9.6126622,9.55597502 9.99869727,9.61602981 C10.374766,9.67454656 10.7982277,9.79923446 11.146094,9.95521953 C11.4848068,10.1070913 11.8514041,10.3333966 12.1390484,10.5696097 C12.4189177,10.7994561 12.7062793,11.1063829 12.9169499,11.4023288 C13.1217538,11.6900481 13.3141882,12.0520222 13.437424,12.3839868 C13.5570903,12.706437 13.6465042,13.0953087 13.6785236,13.4382541 C13.7095888,13.7710771 13.6955936,14.1583392 13.6393299,14.4877642 C13.5847627,14.8071741 13.4743205,15.1659291 13.3388213,15.4596574 C13.2075983,15.7442291 13.0141743,16.0511559 12.8136821,16.2908028 C12.6196573,16.5226879 12.3619472,16.7595091 12.1144861,16.9316256 C11.8752949,17.0979835 11.5754224,17.2525378 11.3013845,17.3492907 C11.0367828,17.4427173 10.7186387,17.5094965 10.4390522,17.5290259 C10.169432,17.54784 9.85673052,17.5280959 9.59177538,17.474229 C9.33660984,17.4223652 9.05108597,17.3235377 8.81853898,17.2052165 C8.59493339,17.0914737 8.35496469,16.9262962 8.16910381,16.7566477 C7.99062929,16.5937593 7.80996361,16.3790429 7.68057842,16.1740912 C7.55660049,15.9776165 7.44361375,15.7326402 7.37568741,15.5098759 C7.31069442,15.2967333 7.26810792,15.0416346 7.26160509,14.8186557 C7.25542033,14.6057635 7.2804421,14.3600003 7.3306977,14.1531528 C7.37855007,13.9560344 7.46347567,13.7368469 7.56179568,13.5599374 C7.65530926,13.3917912 7.78833462,13.2129503 7.92312705,13.0764589 C8.05088653,12.9470496 8.21755698,12.818141 8.37514468,12.7285059 C8.52414439,12.6437711 8.70848559,12.5695879 8.87462592,12.528991 C9.03122405,12.4907548 9.2172263,12.4713327 9.37820678,12.4778425 C9.52939766,12.4839588 9.70239424,12.5148625 9.84609273,12.5628635 C9.98053175,12.6077525 10.1282592,12.6807912 10.2451335,12.761663 C10.3539852,12.8370266 10.4674668,12.9412193 10.5510847,13.0444463 C10.6285886,13.1401262 10.7026997,13.2628111 10.7501633,13.3768401 C10.7939514,13.4819628 10.8275612,13.6101917 10.8395419,13.7236484 C10.8504978,13.8275908 10.8462568,13.9491669 10.8265716,14.05175 C10.8086181,14.1451408 10.7724991,14.2497269 10.7276508,14.3333172 C10.6871141,14.4087881 10.6275284,14.4888015 10.5658575,14.5477832 C10.5106187,14.6006129 10.4375325,14.6517256 10.3684046,14.6836308 C10.3070164,14.7119592 10.2307848,14.7332055 10.16353,14.7386781 C10.1042976,14.7435425 10.0346396,14.7373189 9.97770443,14.7200428 C9.92776691,14.7049129 9.87288158,14.6764414 9.83283967,14.6426405 C9.79760421,14.6128813 9.76349967,14.5696376 9.74437993,14.5273954 C9.72716862,14.4894811 9.71713164,14.4404071 9.71953486,14.398773 C9.72179672,14.3597141 9.73600399,14.3146462 9.75706752,14.2818468 C9.77813105,14.2490116 9.79237367,14.2039794 9.79463552,14.1648848 C9.7970034,14.1232506 9.78696642,14.0741767 9.76979046,14.0362624 C9.75067071,13.9940559 9.71653084,13.9508122 9.68129537,13.9210531 C9.64128881,13.8872164 9.58640348,13.8587807 9.53646596,13.8436149 C9.47953082,13.8263747 9.40987275,13.8201152 9.35064042,13.8249797 C9.28338556,13.830488 9.20715398,13.8516985 9.14576581,13.8800627 C9.07660252,13.9119679 9.00351633,13.9630449 8.94831292,14.0158745 C8.88660668,14.0748563 8.82705628,14.1549055 8.78651959,14.2303406 C8.7416359,14.3139308 8.7055169,14.4185528 8.68759877,14.5119078 C8.66787822,14.6145267 8.66367258,14.7361027 8.67462844,14.8400451 C8.68660921,14.953466 8.72021896,15.081695 8.76397172,15.1868177 C8.81147068,15.3008467 8.88558178,15.4235673 8.96308566,15.5192472 C9.04670362,15.6224742 9.16018514,15.7266312 9.26903692,15.8019947 C9.38587588,15.8829024 9.53363864,15.955941 9.66807766,16.0008301 C9.81177614,16.0487952 9.98477273,16.0797347 10.1359636,16.0858153 C10.2969441,16.0923251 10.4829463,16.0729388 10.6395445,16.0346668 C10.8056848,15.9940699 10.990026,15.9199224 11.1390257,15.8351518 C11.2966134,15.7455168 11.4632485,15.6166082 11.5910433,15.4871989 C11.7258004,15.3507075 11.8588611,15.1719023 11.9523394,15.0037203 C12.0506947,14.8268466 12.135585,14.6076234 12.1834727,14.4105407 C12.2337283,14.2036933 12.2587501,13.9579301 12.25253,13.745002 C12.2460271,13.5220232 12.203476,13.2669602 12.138483,13.0538176 C12.0705566,12.8310533 11.9575699,12.5860412 11.8335566,12.3896024 C11.7042068,12.1846149 11.5235411,11.9698984 11.3450666,11.8070101 C11.1592057,11.6373974 10.919237,11.4722199 10.6955961,11.3584413 C10.4630844,11.2401559 10.1775605,11.1412926 9.922395,11.0894287 C9.65743987,11.0355619 9.34470305,11.0158178 9.07511818,11.0346319 C8.79553167,11.0541613 8.4773876,11.1209405 8.21278588,11.214367 C7.93871265,11.3111557 7.63887547,11.4656743 7.39964894,11.6320679 C7.15218784,11.8041487 6.89451306,12.0409698 6.70045295,12.2728908 C6.49996069,12.5125376 6.30657207,12.8194644 6.17531379,13.1040004 C6.03984987,13.3977287 5.92940772,13.7564836 5.87484046,14.0759293 C5.81857681,14.4053543 5.80458159,14.7926165 5.83564675,15.1254395 C5.86766614,15.4683491 5.95704476,15.8572566 6.07674638,16.1797068 C6.19998215,16.5116713 6.39238121,16.8736454 6.59722047,17.1613647 C6.80789107,17.4573107 7.09521737,17.7642017 7.37508661,17.9940481 C7.66276631,18.230297 8.02932822,18.4565665 8.36804104,18.6084382 C8.71594264,18.7644233 9.13940434,18.889147 9.51547311,18.9476637 C9.90147284,19.0077185 10.3540559,19.0163387 10.7421761,18.9722365 C11.1402627,18.9269897 11.5906192,18.8128177 11.9632245,18.6639147 C12.34516,18.5112918 12.7606345,18.2763306 13.0899818,18.0280994 C13.427387,17.7737876 13.7762075,17.4289823 14.0363209,17.0943709 C14.3026896,16.7517474 14.5564769,16.3166632 14.7253031,15.9155945 C14.8980877,15.5051903 15.0340817,15.0067964 15.0951518,14.5649877 C15.1576002,14.1130567 15.1606043,13.584224 15.1045173,13.1314703 C15.0471581,12.66863 14.9109166,12.1458779 14.736365,11.7141201 C14.5579965,11.2729911 14.2860791,10.7939835 14.0003432,10.4150553 C13.7084579,10.0280793 13.3144356,9.62894212 12.9330656,9.33220924 C12.6193746,9.08007929 12.2964594,8.7424276 12.0587172,8.41611443 C11.8269478,8.09802794 11.6080072,7.69703079 11.4663939,7.32868999 C11.3284207,6.969792 11.2234212,6.53628157 11.1829552,6.15338313 C11.1435494,5.78057131 11.1538691,5.34613091 11.2121826,4.97585863 C11.268941,4.61567299 11.3879005,4.21034789 11.5358046,3.87770375 C11.6795738,3.55435933 11.893107,3.20468953 12.1155463,2.93070522 C12.3316242,2.6645899 12.6196927,2.39178594 12.8971233,2.19227099 C13.1663901,1.99862202 13.5047849,1.81727731 13.8148004,1.70185337 C14.1154151,1.58997048 14.47763,1.50738174 14.796693,1.47926794 C15.1058249,1.45204835 15.4651418,1.4680725 15.770457,1.52397818 C16.0659118,1.57809545 16.3974149,1.68557885 16.6684135,1.81641888 C16.9303646,1.94289519 17.212531,2.12842478 17.4323551,2.32024956 C17.644616,2.50545724 17.8608353,2.75089854 18.0173274,2.98618168 C18.1682355,3.21309506 18.307693,3.4970587 18.394103,3.75623498 C18.4772968,4.00578962 18.5354689,4.30549127 18.550489,4.56845898 C18.5649791,4.82134006 18.5435975,5.11424575 18.4913981,5.36197621 C18.4412485,5.59983466 18.347841,5.86552076 18.2371514,6.08141753 C18.1310209,6.2883365 17.9778863,6.50984888 17.8212175,6.68074928 C17.6713342,6.84428143 17.4743408,7.00917278 17.2868188,7.12634936 C17.1077082,7.23823225 16.8849154,7.33920584 16.6827975,7.39858103 C16.4901864,7.45516631 16.2601486,7.4903622 16.059621,7.49257983 C15.868989,7.49472592 15.6494477,7.4675421 15.4652832,7.41764548 C15.2906256,7.37035993 15.0970249,7.28873693 14.9415224,7.19541773 C14.7945018,7.10721338 14.6388579,6.98274009 14.5210647,6.85740836 C14.4100217,6.73926604 14.3003924,6.58596359 14.2254685,6.44160318 C14.1551036,6.30604175 14.0950584,6.13893278 14.064276,5.98899254 C14.0354727,5.84870971 14.0240927,5.68270955 14.0349072,5.53985141 C14.0449795,5.40675799 14.0773523,5.25520818 14.1238617,5.13030567 C14.1670137,5.01452404 14.23494,4.88822657 14.3087684,4.78957791 C14.3768361,4.69865518 14.4697489,4.6050856 14.5608592,4.53787718 C14.6443005,4.47628436 14.7504663,4.4192341 14.8481148,4.38518279 C14.9369633,4.35420754 15.0445428,4.33356929 15.1384805,4.33110129 C15.2233354,4.32891943 15.3215847,4.34111638 15.4029055,4.36565336 C15.4757443,4.38765079 15.5559695,4.42617313 15.6178524,4.47081183 C15.6728084,4.51047875 15.7290721,4.56667057 15.7674176,4.62286239 C15.8012041,4.67236556 15.8306789,4.73653369 15.8443914,4.79505045 C15.8564075,4.84641356 15.8594822,4.90872174 15.8505761,4.96072869 C15.842695,5.0064762 15.8227624,5.05801816 15.7962209,5.09589667 C15.7723301,5.12991222 15.7353629,5.16324817 15.698537,5.18195493 C15.6639731,5.19951711 15.6183472,5.20956797 15.579719,5.20752918 Z" id="Shape" transform="translate(10.000000, 9.500000) scale(-1, 1) rotate(-180.000000) translate(-10.000000, -9.500000) "></path>
                </g>
            </g>
        </g>
    </g>
</svg>