<?xml version="1.0" encoding="UTF-8"?>
<svg width="66px" height="60px" viewBox="0 0 66 60" version="1.1" xmlns="http://www.w3.org/2000/svg" xmlns:xlink="http://www.w3.org/1999/xlink">
    <!-- Generator: sketchtool 48.2 (47327) - http://www.bohemiancoding.com/sketch -->
    <title>B1CF23C7-DEBD-45BB-A510-591DE194E9F6</title>
    <desc>Created with sketchtool.</desc>
    <defs>
        <linearGradient x1="69.5981%" y1="-13.2138774%" x2="39.9628219%" y2="82.2809071%" id="linearGradient-1">
            <stop stop-color="#2CF4E1" offset="3.919654%"></stop>
            <stop stop-color="#2CB2E1" offset="100%"></stop>
        </linearGradient>
        <linearGradient x1="-24.2913349%" y1="3.28652658%" x2="148.167447%" y2="127.706551%" id="linearGradient-2">
            <stop stop-color="#2CF4E1" offset="3.919654%"></stop>
            <stop stop-color="#2CB2E1" offset="100%"></stop>
        </linearGradient>
        <linearGradient x1="21.4450575%" y1="17.2821547%" x2="69.2862989%" y2="84.7850973%" id="linearGradient-3">
            <stop stop-color="#2CE5E1" offset="0%"></stop>
            <stop stop-color="#2CB2E1" offset="100%"></stop>
        </linearGradient>
        <linearGradient x1="49.987702%" y1="100.042188%" x2="49.987702%" y2="0.032490157%" id="linearGradient-4">
            <stop stop-color="#000000" offset="0%"></stop>
            <stop stop-color="#0D0D0D" offset="100%"></stop>
        </linearGradient>
        <linearGradient x1="49.9627025%" y1="77.888826%" x2="49.9627025%" y2="-14.7702152%" id="linearGradient-5">
            <stop stop-color="#2CF4E1" offset="3.919654%"></stop>
            <stop stop-color="#2CB2E1" offset="100%"></stop>
        </linearGradient>
        <linearGradient x1="-1.49951741%" y1="50.0314836%" x2="101.438263%" y2="50.0314836%" id="linearGradient-6">
            <stop stop-color="#2CF4E1" offset="3.919654%"></stop>
            <stop stop-color="#2CB2E1" offset="100%"></stop>
        </linearGradient>
        <path d="M56.1785997,14.8499101 C45.3555569,5.81333689 31.6710262,1.11278396 28.8290042,0.211045233 L28.5564815,0.115115582 L28.2060953,0 L27.5831863,0.191859303 C24.7411643,1.09359803 11.0566336,5.79415096 0.233590851,14.8307241 L0,15.0225834 L0.0583977128,15.3295583 C0.077863617,15.406302 1.24581787,22.2556792 5.23632824,30.006795 C7.59170266,34.5538605 10.4531906,38.5061621 13.7234625,41.7869562 C17.7334388,45.7968157 22.4052558,48.7514489 27.6026522,50.5932982 L27.9141067,50.7084138 L28.2255612,50.8235294 L28.5564815,50.7084138 L28.867936,50.5932982 C34.0653324,48.7514489 38.7176836,45.7968157 42.7471257,41.7869562 C46.0173977,38.5253481 48.8788856,34.5538605 51.23426,30.006795 C55.2247704,22.2748651 56.4121905,15.406302 56.4121905,15.3295583 L56.4705882,15.0225834 L56.1785997,14.8499101 Z M50.2025671,29.5271468 C47.9055904,33.9782826 45.1219661,37.8538405 41.9100919,41.0387049 C37.9390474,44.9910066 33.3256281,47.8880821 28.1866294,49.6915595 C23.0476306,47.907268 18.4342113,45.0101925 14.4631669,41.0578909 C11.2707586,37.8730264 8.46766835,33.9974685 6.17069165,29.5655186 C2.70576069,22.8696289 1.40154511,16.8644327 1.12902245,15.4830458 C12.2245879,6.331357 26.2400389,1.74591966 28.1671635,1.15115582 C30.0748221,1.74591966 44.109739,6.331357 55.2053045,15.4830458 C54.9717136,16.8260609 53.667498,22.850443 50.2025671,29.5271468 Z" id="path-7"></path>
        <filter x="-14.2%" y="-11.8%" width="128.3%" height="131.5%" filterUnits="objectBoundingBox" id="filter-8">
            <feMorphology radius="1" operator="dilate" in="SourceAlpha" result="shadowSpreadOuter1"></feMorphology>
            <feOffset dx="0" dy="2" in="shadowSpreadOuter1" result="shadowOffsetOuter1"></feOffset>
            <feGaussianBlur stdDeviation="2" in="shadowOffsetOuter1" result="shadowBlurOuter1"></feGaussianBlur>
            <feComposite in="shadowBlurOuter1" in2="SourceAlpha" operator="out" result="shadowBlurOuter1"></feComposite>
            <feColorMatrix values="0 0 0 0 0   0 0 0 0 0   0 0 0 0 0  0 0 0 0.3 0" type="matrix" in="shadowBlurOuter1"></feColorMatrix>
        </filter>
    </defs>
    <g id="website" stroke="none" stroke-width="1" fill="none" fill-rule="evenodd" transform="translate(-677.000000, -1064.000000)">
        <g id="Stacked-Group" transform="translate(160.000000, 790.000000)">
            <g id="Group-10" transform="translate(208.000000, 0.000000)">
                <g id="aragon" transform="translate(310.000000, 271.000000)">
                    <rect id="Rectangle-Copy-2" fill-opacity="0" fill="#FFFFFF" x="0" y="0" width="64" height="63"></rect>
                    <g transform="translate(3.764706, 5.558824)" fill-rule="nonzero">
                        <ellipse id="Oval" fill="url(#linearGradient-1)" cx="29.8487395" cy="19.8529412" rx="16.1344538" ry="15.8823529"></ellipse>
                        <path d="M41.1674178,15.4023486 C42.300986,16.9925471 42.8866629,18.8772268 42.8866629,20.8404348 C42.8866629,23.2159165 41.9420227,25.4147095 40.3361345,27.1815967 L41.3185602,30.9705882 L44.2847303,30.9705882 L47.4020428,27.2993892 L48.2333261,21.9201992 L48.4033613,18.7201701 L45.3238345,15.0882353 L41.1674178,15.4023486 Z" id="Shape" fill="url(#linearGradient-2)"></path>
                        <path d="M6.14852507,31.1465982 L6.7078528,33.3378654 C6.7078528,33.3378654 13.2269139,46.677685 27.9044451,51.6176471 C27.9044451,51.6176471 41.6561924,45.928041 47.5966387,36.2979983 L39.0138511,29.1859907 C39.0138511,29.1859907 35.0985569,32.2998967 29.2738337,32.2998967 C23.4491104,32.2998967 15.5413735,28.8400011 15.5413735,21.7087719 C15.5413735,14.5775426 23.7384178,11.9633993 23.7384178,11.9633993 L20.2474413,11.1176471 L11.3174848,11.1176471 L5.64705882,24.7073481 L6.14852507,31.1465982 Z" id="Shape" fill="url(#linearGradient-3)"></path>
                        <path d="M56.4705882,17.0906703 C56.216326,16.8413768 48.8818392,9.22833637 28.7755659,2.43988221 L28.6582141,2.38235294 C9.17781702,8.94069001 0.806722689,17.0906703 0.806722689,17.0906703 C1.56950932,21.4245421 3.48625522,26.257001 5.2074148,30.0155802 C5.34432522,30.3415794 7.67180238,34.3302756 9.37340333,36.516388 C8.35635449,34.3302756 7.26107112,32.450986 7.26107112,29.1909939 C7.26107112,20.0054868 14.5173234,12.5266813 23.6120871,12.2006821 C23.8272321,12.2006821 24.0619357,12.2006821 24.2770806,12.2198585 L22.1060725,10.0912755 C22.1060725,10.0912755 30.8292222,8.65304365 42.0363181,15.3072628 C42.0363181,15.3072628 42.1927872,15.6524385 42.0363181,16.6304361 C42.0363181,16.6304361 47.3171486,18.8549013 47.7669972,23.2079496 C48.2168457,27.5609979 45.4199614,30.0347566 43.1511601,30.3799322 C43.1511601,30.3799322 44.324678,28.5965248 42.5252839,27.6377036 C42.1536699,27.4267629 41.7038214,27.3308808 41.2344142,27.3500572 C37.7920951,27.3500572 37.3813638,31.2045185 37.3813638,31.2045185 C37.3422465,31.3962827 37.3422465,31.588047 37.3422465,31.7798112 C37.3422465,31.7798112 36.7554876,37.4368563 47.0237692,37.3217978 C47.0237692,37.3217978 52.2263652,31.5496941 53.5954694,26.3528832 C54.1039938,24.4352407 54.4560492,22.9970089 54.6907528,21.9423056 C55.2775117,20.4273681 55.8251534,18.8740777 56.3727951,17.2632581 L56.4705882,17.0906703 Z" id="Shape" fill="url(#linearGradient-4)"></path>
                        <path d="M37.6559995,16.6357537 C37.8004255,16.5543198 38.2956006,16.3100183 38.8733048,15.7399815 C40.008081,15.8824907 41.1428571,16.248943 41.1428571,16.248943 C39.0589955,15.007077 36.2323712,14.2741725 33.0756303,14.2945309 C33.0756303,14.2945309 34.2723033,15.984283 37.6147349,16.6764706 C37.6147349,16.6764706 37.6353672,16.6561121 37.6559995,16.6357537 Z" id="Shape" fill="#282828"></path>
                        <path d="M28.245081,2.70238533 C30.1633194,3.2689023 44.0803344,7.74438637 55.2178611,16.6198189 L56.4705882,16.2799087 L56.3727189,16.2043731 C45.4896524,7.31005669 31.7292283,2.68350144 28.8714446,1.79595818 L28.5974105,1.70153869 L28.245081,1.58823529 L27.6187175,1.77707428 C24.7609338,2.66461754 11.0005097,7.29117279 0.117443164,16.1854892 L0,16.2987926 L1.21357937,16.6764706 C12.3315323,7.76327026 26.3268427,3.2689023 28.245081,2.70238533 Z" id="Shape" fill="#282828"></path>
                        <g id="Shape">
                            <use fill="black" fill-opacity="1" filter="url(#filter-8)" xlink:href="#path-7"></use>
                            <use stroke="url(#linearGradient-6)" stroke-width="2" fill="url(#linearGradient-5)" fill-rule="evenodd" xlink:href="#path-7"></use>
                        </g>
                    </g>
                </g>
            </g>
        </g>
    </g>
</svg>