<?xml version="1.0" encoding="UTF-8"?>
<svg width="64px" height="63px" viewBox="0 0 64 63" version="1.1" xmlns="http://www.w3.org/2000/svg" xmlns:xlink="http://www.w3.org/1999/xlink">
    <!-- Generator: sketchtool 48.2 (47327) - http://www.bohemiancoding.com/sketch -->
    <title>0E02E43E-9417-4528-89DA-5AA417F4F12C</title>
    <desc>Created with sketchtool.</desc>
    <defs>
        <linearGradient x1="50%" y1="99.9996731%" x2="50%" y2="0.000326930471%" id="linearGradient-1">
            <stop stop-color="#F7941D" offset="0%"></stop>
            <stop stop-color="#F9AB4D" offset="100%"></stop>
        </linearGradient>
        <path d="M55.622934,34.5192099 C51.8453285,49.4133112 36.53397,58.4724061 21.4034544,54.7538256 C6.27293874,51.0352452 -2.92995125,35.9631267 0.847654245,21.0690254 C4.62525974,6.17492407 19.9366182,-2.88417077 35.0671339,0.834409647 C50.1976495,4.55299006 59.4005395,19.6251085 55.622934,34.5192099 Z" id="path-2"></path>
        <filter x="-12.4%" y="-9.0%" width="124.8%" height="125.2%" filterUnits="objectBoundingBox" id="filter-3">
            <feOffset dx="0" dy="2" in="SourceAlpha" result="shadowOffsetOuter1"></feOffset>
            <feGaussianBlur stdDeviation="2" in="shadowOffsetOuter1" result="shadowBlurOuter1"></feGaussianBlur>
            <feColorMatrix values="0 0 0 0 0   0 0 0 0 0   0 0 0 0 0  0 0 0 0.3 0" type="matrix" in="shadowBlurOuter1"></feColorMatrix>
        </filter>
    </defs>
    <g id="website" stroke="none" stroke-width="1" fill="none" fill-rule="evenodd" transform="translate(-831.000000, -1063.000000)">
        <g id="Stacked-Group" transform="translate(160.000000, 790.000000)">
            <g id="Group-10" transform="translate(208.000000, 0.000000)">
                <g id="bitcoin-wallet" transform="translate(463.000000, 271.000000)">
                    <rect id="Rectangle-Copy-2" fill-opacity="0" fill="#FFFFFF" x="0" y="0" width="64" height="63"></rect>
                    <g transform="translate(3.764706, 3.705882)" fill-rule="nonzero" id="Shape">
                        <g>
                            <use fill="black" fill-opacity="1" filter="url(#filter-3)" xlink:href="#path-2"></use>
                            <use fill="url(#linearGradient-1)" fill-rule="evenodd" xlink:href="#path-2"></use>
                        </g>
                        <path d="M40.8708099,23.6718704 C41.4294144,20.0198889 38.5964918,18.0669576 34.7062109,16.7389644 L35.9630709,11.7980483 L32.8907464,11.0559344 L31.6737868,15.8796746 C30.8558302,15.6843815 30.0378737,15.4890884 29.1999671,15.3133246 L30.4368769,10.4700551 L27.3645525,9.72794118 L26.1076925,14.6688573 C25.4293871,14.5126228 24.790982,14.3759176 24.1525769,14.2196831 L24.1525769,14.2001538 L19.9031931,13.1651002 L19.0852366,16.3874368 C19.0852366,16.3874368 21.3595547,16.8951989 21.3196544,16.9342575 C22.5565642,17.2467265 22.7959661,18.0474283 22.7560658,18.6918956 L21.3196544,24.335867 C21.399455,24.3553963 21.519156,24.3944549 21.6388569,24.4335135 C21.5391061,24.4139842 21.4194052,24.3749256 21.3196544,24.3553963 L19.3046883,32.2452386 C19.1450871,32.6162955 18.766034,33.1631163 17.8882271,32.9678231 C17.9281274,33.0068818 15.6538093,32.4210024 15.6538093,32.4210024 L14.1176471,35.8581614 L18.127629,36.834627 C18.8657848,37.0103908 19.6039407,37.205684 20.3221464,37.3814478 L19.0453363,42.3809518 L22.1176607,43.1230657 L23.3745207,38.1821496 C24.2124274,38.396972 25.0303839,38.6117945 25.8283902,38.8070876 L24.5715302,43.7284744 L27.6438547,44.4705882 L28.9206648,39.4710842 C34.1675566,40.4475498 38.117688,40.0569636 39.7735512,35.4089872 C41.1102118,31.6788885 39.7137007,29.5111348 36.9406287,28.1050243 C38.9356445,27.6363208 40.4518566,26.3473862 40.8708099,23.6718704 Z M33.8284039,33.3193508 C32.8707963,37.0494495 26.4468452,35.0379303 24.3520785,34.5301681 L26.047842,27.9097312 C28.1426087,28.397964 34.8259118,29.4134882 33.8284039,33.3193508 Z M34.7860115,23.6132824 C33.9281547,27.0113828 28.561562,25.2928033 26.8258982,24.8631584 L28.3620604,18.8481301 C30.0977242,19.277775 35.6837687,20.0589475 34.7860115,23.6132824 Z" fill="#FFFFFF"></path>
                    </g>
                </g>
            </g>
        </g>
    </g>
</svg>