<?xml version="1.0" encoding="utf-8"?>
<!-- Generator: Adobe Illustrator 16.0.0, SVG Export Plug-In . SVG Version: 6.00 Build 0)  -->
<!DOCTYPE svg PUBLIC "-//W3C//DTD SVG 1.1//EN" "http://www.w3.org/Graphics/SVG/1.1/DTD/svg11.dtd">
<svg version="1.1" id="Layer_1" xmlns="http://www.w3.org/2000/svg" xmlns:xlink="http://www.w3.org/1999/xlink" x="0px" y="0px"
	 width="2000px" height="2000px" viewBox="0 0 2000 2000" enable-background="new 0 0 2000 2000" xml:space="preserve">
<path id="Path-1-Copy-7" fill="#97C554" d="M106.115,1696.803c89.192,94.442,579.035,547.109,1347.916,21.76
	c555.988-432.996,542.096-1371.71,488.682-1655.199C1924.115,104.628,1278.316,1518.818,106.115,1696.803z M1942.639,63.128
	c-6.809-2.814-722.096-100.325-1429.227,355.119C74.313,701.063,16.268,1114.989,36.301,1390.813
	C1064.241,1275.775,1919.32,95.565,1942.639,63.128z"/>
<path id="Path-1-Copy-6" fill="#709B30" d="M1942.639,63.128c-6.809-2.814-722.096-100.325-1429.227,355.119
	C74.313,701.063,16.268,1114.989,36.301,1390.813C1064.241,1275.775,1919.32,95.565,1942.639,63.128z"/>
</svg>
