<?xml version="1.0" encoding="UTF-8"?>
<svg width="165px" height="53px" viewBox="0 0 165 53" version="1.1" xmlns="http://www.w3.org/2000/svg" xmlns:xlink="http://www.w3.org/1999/xlink">
    <g id="styleguide" stroke="none" stroke-width="1" fill="none" fill-rule="evenodd" transform="translate(-131.000000, -203.000000)">
        <g id="Group" transform="translate(131.000000, 203.000000)" stroke="#2576F4">
            <path d="M16.0246323,4.97557494 C13.389304,5.07953509 11.0022581,6.56004711 9.73805349,8.87468526 L2.77941086,21.6152971 C0.653471945,25.5076887 -0.00337064948,30.0342976 0.928555267,34.3704068 L1.92770093,39.0192793 C2.53214404,41.8316609 4.69190266,44.050538 7.48694026,44.7306901 L36.1169474,51.6975941 C37.7220583,52.0881862 39.3722538,52.2620312 41.0235209,52.2144924 L137.121628,49.4478981 C139.655628,49.3749461 142.147597,48.7819793 144.442878,47.7057984 L160.161581,40.3358203 C163.583484,38.731404 165.277009,34.8315215 164.113271,31.2357904 L157.129425,9.65700284 C156.23202,6.88418935 153.809552,4.8823216 150.917312,4.52346713 L122.63882,1.01481553 C121.641533,0.891077189 120.635821,0.848804473 119.631668,0.888416968 L16.0246323,4.97557494 Z" id="Container"></path>
        </g>
    </g>
</svg>