<?xml version="1.0" encoding="UTF-8"?>
<svg width="28px" height="30px" viewBox="0 0 28 30" version="1.1" xmlns="http://www.w3.org/2000/svg" xmlns:xlink="http://www.w3.org/1999/xlink">
    <!-- Generator: sketchtool 48.2 (47327) - http://www.bohemiancoding.com/sketch -->
    <title>CD6F84E6-A718-4FF3-9D6F-D88E15E67AA8</title>
    <desc>Created with sketchtool.</desc>
    <defs></defs>
    <g id="website" stroke="none" stroke-width="1" fill="none" fill-rule="evenodd" transform="translate(-137.000000, -5458.000000)">
        <g id="Group-23" transform="translate(0.000000, 5428.000000)" fill="#FFFFFF">
            <g id="Elements/Logo/White" transform="translate(137.000000, 30.000000)">
                <g id="Logo_2.0-blue">
                    <path d="M0.953934382,9.65076372 C-1.19025996,15.4618856 0.354910766,22.0390813 4.83806359,26.1840033 C9.32121642,30.3289254 15.8120914,31.1814973 21.154317,28.3271318 L27.9861213,24.9531451 L27.9861213,21.5145501 L27.8750914,21.2704745 L27.6044562,21.4068697 C27.6044562,21.4068697 24.9351141,22.7157851 19.5964297,25.3336159 C14.305243,28.1352752 7.82004517,26.1777355 4.81558362,20.8720569 L8.58365848,19.0127749 C10.5723511,22.100614 14.4793674,23.161558 17.6776955,21.482246 L25.3387538,17.8605943 L28,16.5899653 L28,9.51536121 C25.8195181,3.77335293 20.4629709,-0.00201477399 14.4994666,8.06657328e-07 C8.48676508,0.000409049784 3.09812872,3.83964187 0.953934382,9.65076372 Z M17.1364251,16.4069085 L15.172585,17.3114241 L10.783437,14.1025474 L19.735217,10.039406 C17.5653643,7.54862942 14.037825,6.89971275 11.1709333,8.46394329 C8.30404155,10.0281738 6.82963998,13.4062444 7.59132937,16.6653416 L3.80243642,18.5353916 C1.98836953,12.6733602 4.90972583,6.36519799 10.4624811,4.15418051 C16.0152363,1.94316302 22.2711688,4.597077 24.72462,10.2045159 L24.72462,12.8929373 L17.1364251,16.4069085 Z" id="Shape" fill-rule="nonzero"></path>
                </g>
            </g>
        </g>
    </g>
</svg>