<svg xmlns="http://www.w3.org/2000/svg" width="42" height="42" viewBox="0 0 42 42">
    <g fill="none" fill-rule="evenodd">
        <g transform="translate(.167 .167)">
            <circle cx="20.833" cy="20.833" r="20.833" fill="#004B6A"/>
            <path fill="#FFF" d="M32.789 6.586a.622.622 0 0 1 .08.88.63.63 0 0 1-.886.081.635.635 0 0 1-.074-.887.62.62 0 0 1 .88-.074zm-8.723-4.073c.336.06.564.384.504.726a.626.626 0 0 1-.726.511.63.63 0 0 1-.51-.726.632.632 0 0 1 .732-.51zm3.132.84c.322.121.49.478.376.807a.63.63 0 0 1-.807.37.618.618 0 0 1-.376-.8.625.625 0 0 1 .807-.377zm2.936 1.371a.621.621 0 0 1 .229.854.629.629 0 0 1-.854.235.635.635 0 0 1-.235-.86.627.627 0 0 1 .86-.229zm4.947 4.154a.62.62 0 0 1-.074.88.635.635 0 0 1-.887-.074.63.63 0 0 1 .08-.887.622.622 0 0 1 .88.08zm1.861 2.654a.627.627 0 0 1-.228.86.635.635 0 0 1-.86-.235.629.629 0 0 1 .235-.853.621.621 0 0 1 .853.228zm1.371 2.937a.625.625 0 0 1-.376.807.618.618 0 0 1-.8-.377.63.63 0 0 1 .37-.806.636.636 0 0 1 .806.376zm.84 3.132a.632.632 0 0 1-.51.732.63.63 0 0 1-.726-.51.626.626 0 0 1 .51-.726.626.626 0 0 1 .726.504zm.282 3.232c0 .35-.282.625-.625.625a.625.625 0 1 1 0-1.25c.343 0 .625.276.625.625zm-.282 3.233a.626.626 0 0 1-.726.504.626.626 0 0 1-.51-.726.63.63 0 0 1 .725-.51c.343.06.572.39.511.732zm-.84 3.132a.636.636 0 0 1-.806.376.63.63 0 0 1-.37-.807.618.618 0 0 1 .8-.376c.33.121.497.477.376.807zm-1.37 2.936a.621.621 0 0 1-.854.229.629.629 0 0 1-.236-.854.635.635 0 0 1 .86-.235.627.627 0 0 1 .23.86zM35.08 32.79a.622.622 0 0 1-.88.08.63.63 0 0 1-.081-.886.635.635 0 0 1 .887-.074.62.62 0 0 1 .074.88zm-2.292 2.292a.62.62 0 0 1-.88-.074.635.635 0 0 1 .074-.887.63.63 0 0 1 .887.08.622.622 0 0 1-.081.88zm-2.655 1.861a.627.627 0 0 1-.86-.228.635.635 0 0 1 .235-.86.629.629 0 0 1 .854.235.621.621 0 0 1-.229.853zm-2.936 1.371a.625.625 0 0 1-.807-.376.618.618 0 0 1 .376-.8.63.63 0 0 1 .807.37.636.636 0 0 1-.376.806zm-3.132.84a.632.632 0 0 1-.733-.51.63.63 0 0 1 .511-.726.626.626 0 0 1 .726.51.626.626 0 0 1-.504.726zm-3.233.282a.624.624 0 0 1-.625-.625.625.625 0 1 1 1.25 0 .624.624 0 0 1-.625.625zm-3.232-.282a.626.626 0 0 1-.504-.726.626.626 0 0 1 .726-.51.63.63 0 0 1 .51.725.632.632 0 0 1-.732.511zm-3.132-.84a.636.636 0 0 1-.376-.806.63.63 0 0 1 .806-.37c.33.114.498.477.377.8a.625.625 0 0 1-.807.376zm-2.937-1.37a.621.621 0 0 1-.228-.854.629.629 0 0 1 .853-.236.635.635 0 0 1 .235.86.627.627 0 0 1-.86.23zM8.878 35.08a.622.622 0 0 1-.081-.88.63.63 0 0 1 .887-.081.635.635 0 0 1 .074.887.62.62 0 0 1-.88.074zm-2.292-2.292a.62.62 0 0 1 .074-.88.635.635 0 0 1 .887.074.63.63 0 0 1-.08.887.622.622 0 0 1-.881-.081zm-1.862-2.655a.627.627 0 0 1 .229-.86.635.635 0 0 1 .86.235.629.629 0 0 1-.235.854.621.621 0 0 1-.854-.229zm-1.37-2.936a.625.625 0 0 1 .376-.807.618.618 0 0 1 .8.376.63.63 0 0 1-.37.807.636.636 0 0 1-.807-.376zm-.84-3.132a.632.632 0 0 1 .51-.733.63.63 0 0 1 .726.511.626.626 0 0 1-.51.726.626.626 0 0 1-.727-.504zm-.283-3.233c0-.35.282-.625.625-.625a.625.625 0 1 1 0 1.25.624.624 0 0 1-.625-.625zm.282-3.232a.626.626 0 0 1 .726-.504c.343.06.571.383.511.726a.63.63 0 0 1-.726.51.632.632 0 0 1-.51-.732zm.84-3.132a.636.636 0 0 1 .807-.376.63.63 0 0 1 .37.806.618.618 0 0 1-.8.377.625.625 0 0 1-.377-.807zm1.371-2.937a.621.621 0 0 1 .854-.228.629.629 0 0 1 .235.853.635.635 0 0 1-.86.235.627.627 0 0 1-.229-.86zm1.862-2.654a.622.622 0 0 1 .88-.081.63.63 0 0 1 .081.887.635.635 0 0 1-.887.074.62.62 0 0 1-.074-.88zm2.292-2.292a.62.62 0 0 1 .88.074.635.635 0 0 1-.074.887.63.63 0 0 1-.887-.08.622.622 0 0 1 .08-.881zm2.654-1.862a.627.627 0 0 1 .86.229.635.635 0 0 1-.235.86.629.629 0 0 1-.853-.235.621.621 0 0 1 .228-.854zm2.937-1.37a.625.625 0 0 1 .807.376.618.618 0 0 1-.377.8.63.63 0 0 1-.806-.37.636.636 0 0 1 .376-.807zm3.132-.84a.632.632 0 0 1 .732.51.63.63 0 0 1-.51.726.626.626 0 0 1-.726-.51.626.626 0 0 1 .504-.727zm3.232-.283c.35 0 .625.282.625.625a.625.625 0 1 1-1.25 0c0-.343.276-.625.625-.625zm-2.453 16.31c.222 0 .404.182.404.41v7.816a.41.41 0 0 1-.404.41h-.96a.41.41 0 0 1-.404-.41V20.773a.416.416 0 0 0-.41-.41h-.564a.412.412 0 0 0-.41.41V26.767c0 .222-.188.41-.41.41h-.383v.014H9.684a2.055 2.055 0 0 1-1.008-.222L5.27 25.383h7.782c.397 0 .72-.323.72-.712v-5.719c0-.229.18-.41.41-.41h4.2zm2.487-4.24h4.328c.222 0 .41.182.41.41v14.65c0 .222-.188.41-.41.41h-1.122a.412.412 0 0 1-.41-.41V16.635a.412.412 0 0 0-.41-.41h-.444a.406.406 0 0 0-.403.41v12.728c0 .221-.188.41-.41.41h-.605v.006h-6.31a1.486 1.486 0 0 1-.746-.175l-3.831-1.787h9.55a.41.41 0 0 0 .41-.403V14.71c0-.228.181-.41.403-.41zm6.236 15.215v.504c0 .222-.181.41-.41.41H16.11l3.743 1.74c.222.122.45.169.7.162h8.184a.41.41 0 0 0 .404-.41V12.453c0-.222.181-.41.396-.41h.383c.222 0 .41.188.41.41v19.469c0 .222.182.41.41.41h1.217c.228 0 .41-.188.41-.41v-21.35a.407.407 0 0 0-.41-.41h-4.443a.407.407 0 0 0-.41.41v18.944z"/>
        </g>
        <path d="M-4-4h50v50H-4z"/>
        <path d="M-4-4h50v50H-4z"/>
    </g>
</svg>
