<svg xmlns="http://www.w3.org/2000/svg" xmlns:xlink="http://www.w3.org/1999/xlink" width="22" height="22" viewBox="0 0 22 22">
    <defs>
        <path id="a" d="M0 0h21.327v21.291H0z"/>
    </defs>
    <g fill="none" fill-rule="evenodd">
        <g>
            <mask id="b" fill="#fff">
                <use xlink:href="#a"/>
            </mask>
            <path fill="#0071A1" d="M19.747 0H1.573C.705 0 0 .688 0 1.537v18.25c0 .85.705 1.54 1.573 1.54h18.174c.87 0 1.58-.69 1.58-1.54V1.538c0-.849-.71-1.537-1.58-1.537" mask="url(#b)"/>
        </g>
        <path fill="#FFFFFE" d="M4.744 2.936a1.834 1.834 0 1 1-.002 3.668 1.834 1.834 0 0 1 .002-3.668zM3.16 18.173h3.166V7.996H3.16v10.177zM8.31 7.996h3.033v1.39h.044c.422-.8 1.454-1.644 2.992-1.644 3.2 0 3.793 2.107 3.793 4.849v5.582h-3.16v-4.95c0-1.18-.023-2.698-1.644-2.698-1.647 0-1.898 1.285-1.898 2.613v5.035H8.31V7.996"/>
    </g>
</svg>
