<?xml version="1.0" encoding="UTF-8"?>
<svg width="30px" height="31px" viewBox="0 0 30 31" version="1.1" xmlns="http://www.w3.org/2000/svg" xmlns:xlink="http://www.w3.org/1999/xlink">
    <!-- Generator: sketchtool 48.2 (47327) - http://www.bohemiancoding.com/sketch -->
    <title>35B2E982-597B-4904-B8BB-521744F73077</title>
    <desc>Created with sketchtool.</desc>
    <defs></defs>
    <g id="iPad-Copy-2" stroke="none" stroke-width="1" fill="none" fill-rule="evenodd" transform="translate(-28.000000, -25.000000)">
        <g id="Logo-Copy" transform="translate(28.000000, 25.000000)" fill="#FFFFFF" fill-rule="nonzero">
            <path d="M15.5351428,8.3354591e-07 C9.09296259,0.000422684777 3.31942363,3.96762993 1.02207255,9.97245584 C-1.27527853,15.9772817 0.380261535,22.7737173 5.18363956,27.0568035 C9.98701759,31.3398896 16.9415265,32.2208806 22.6653397,29.2713695 L29.9851299,25.7849166 L29.9851299,22.2317018 L29.8661694,21.9794903 L29.5762031,22.120432 C29.5762031,22.120432 29.5762031,22.120432 29.5762031,22.0981781 L20.9961747,26.1780698 C15.327046,29.0731177 8.37861982,27.0503267 5.15955388,21.5677921 L9.19677694,19.646534 C11.327519,22.8373012 15.5136079,23.93361 18.940388,22.1983209 L27.1486647,18.4559474 L30,17.1429641 L30,9.83253992 C27.6637694,3.89913136 21.9246117,-0.00208193312 15.5351428,8.33545906e-07 Z M18.3604554,16.9538055 L16.256341,17.8884716 L11.5536825,14.5726323 L21.1448754,10.3740528 C18.8200331,7.8002504 15.0405267,7.12970318 11.9688571,8.74607473 C8.89718738,10.3624463 7.31747141,13.8531192 8.13356718,17.2208529 L4.07403902,19.153238 C2.13039593,13.0958055 5.26042053,6.57737126 11.2098011,4.29265319 C17.1591818,2.00793512 23.8619665,4.7503129 26.4906643,10.5446665 L26.4906643,13.3227018 L18.3604554,16.9538055 Z" id="Shape"></path>
        </g>
    </g>
</svg>