<?xml version="1.0" encoding="UTF-8"?>
<svg width="24px" height="25px" viewBox="0 0 24 25" version="1.1" xmlns="http://www.w3.org/2000/svg" xmlns:xlink="http://www.w3.org/1999/xlink">
    <!-- Generator: sketchtool 48.2 (47327) - http://www.bohemiancoding.com/sketch -->
    <title>85CD8804-41BA-4F68-9A84-977A7C87D6FD</title>
    <desc>Created with sketchtool.</desc>
    <defs></defs>
    <g id="website" stroke="none" stroke-width="1" fill="none" fill-rule="evenodd" transform="translate(-134.000000, -35.000000)">
        <g id="Group-39" transform="translate(-1.000000, 20.000000)" fill="#273951" fill-rule="nonzero">
            <g id="Logo" transform="translate(135.000000, 13.000000)">
                <path d="M11.984253,2.9753701 C7.01457114,2.97569267 2.56069823,6.00925397 0.788455968,10.600899 C-0.983786295,15.1925441 0.293344613,20.3895007 3.99880766,23.6646017 C7.70427071,26.9397027 13.0691776,27.6133605 17.4846906,25.3579899 L23.1313859,22.6920417 L23.1313859,19.9750435 L23.0396164,19.7821877 L22.8159281,19.8899601 C22.8159281,19.8899601 22.8159281,19.8899601 22.8159281,19.8729434 L16.1970491,22.9926699 C11.8237212,25.2063948 6.46350672,23.6596492 3.98022728,19.467379 L7.0946565,17.9982714 C8.73837183,20.4381207 11.9676404,21.2764232 14.6111565,19.9495185 L20.9432557,17.0878785 L23.1428571,16.0838937 L23.1428571,10.493911 C21.3406221,5.95687591 16.9132718,2.97377749 11.984253,2.9753701 Z M14.1637799,15.9392519 L12.5406059,16.6539529 L8.91284077,14.118466 L16.311761,10.9079838 C14.5183113,8.93990226 11.6026921,8.4271622 9.23311831,9.66313548 C6.86354455,10.8991088 5.64490652,13.5682837 6.27446611,16.1434522 L3.1428301,17.6210681 C1.64344829,12.9891969 4.0580387,8.00481654 8.64756088,6.25778598 C13.2370831,4.51075541 18.4078028,6.60773966 20.4356553,11.0384451 L20.4356553,13.1626953 L14.1637799,15.9392519 Z" id="Shape"></path>
            </g>
        </g>
    </g>
</svg>