<?xml version="1.0" encoding="UTF-8"?>
<svg width="58px" height="63px" viewBox="0 0 58 63" version="1.1" xmlns="http://www.w3.org/2000/svg" xmlns:xlink="http://www.w3.org/1999/xlink">
    <!-- Generator: sketchtool 48.2 (47327) - http://www.bohemiancoding.com/sketch -->
    <title>038BA883-898A-4F4A-B15D-B44F4EB01233</title>
    <desc>Created with sketchtool.</desc>
    <defs>
        <linearGradient x1="50.0096565%" y1="99.9782442%" x2="50.0096565%" y2="-0.0481730145%" id="linearGradient-1">
            <stop stop-color="#00C2BF" offset="0%"></stop>
            <stop stop-color="#004AEC" offset="100%"></stop>
        </linearGradient>
        <path d="M50.2927908,16.1331269 C50.2503317,17.8676471 49.4860681,19.1633127 48,20.0410217 C47.7240159,20.2082043 47.6390977,20.375387 47.6390977,20.6679567 C47.6390977,25.4117647 47.6390977,30.1555728 47.6390977,34.8993808 C47.6390977,35.1919505 47.7027864,35.3591331 47.9787705,35.505418 C49.6983636,36.4876161 50.5475453,38.2848297 50.2503317,40.1656347 C49.9531181,41.9837461 48.4882795,43.4674923 46.5776205,43.8227554 C45.4736842,44.0317337 44.412207,43.8645511 43.4356479,43.2794118 C43.1384343,43.0913313 42.9261389,43.1331269 42.6501548,43.3003096 C38.5103936,45.6617647 34.3494029,48.0232198 30.2096418,50.3637771 C29.9336577,50.5309598 29.82751,50.6981424 29.82751,51.0325077 C29.82751,53.3103715 28.0442282,55.2956656 25.8151261,55.5255418 C23.4374171,55.755418 21.3356922,54.2925697 20.8049536,52.0147059 C20.7200354,51.6594427 20.6988058,51.3041796 20.6988058,50.9489164 C20.6988058,50.6981424 20.6138877,50.5518576 20.4015922,50.4264706 C16.1981424,48.0441176 11.9734631,45.6617647 7.77001327,43.2585139 C7.53648828,43.1331269 7.36665192,43.1331269 7.13312693,43.2585139 C4.3945157,44.8885449 0.891640867,43.3212074 0.297213622,40.2910217 C-0.0636886333,38.3684211 0.721804511,36.5712074 2.46262716,35.5681115 C2.73861123,35.4009288 2.8659885,35.254644 2.8659885,34.9202786 C2.84475896,30.1764706 2.8659885,25.4326625 2.8659885,20.6888545 C2.8659885,20.3962848 2.78107032,20.2291022 2.52631579,20.0828173 C0.7642636,19.0797214 -0.0424590889,17.3452012 0.275984078,15.380805 C0.615656789,13.4373065 2.14418399,12.0162539 4.11853162,11.7236842 C5.18000885,11.5773994 6.22025652,11.7654799 7.13312693,12.3506192 C7.34542238,12.4760062 7.51525874,12.4760062 7.72755418,12.3506192 C11.931004,9.96826625 16.1132242,7.58591331 20.316674,5.20356037 C20.5714286,5.05727554 20.6775763,4.89009288 20.6775763,4.59752322 C20.6775763,1.98529412 22.7793012,-0.0208978328 25.4329943,0.0417956656 C27.5134896,0.0835913313 29.4453782,1.77631579 29.7425918,3.78250774 C29.7638213,3.97058824 29.8062804,4.0750774 29.8062804,4.34674923 C29.8062804,4.91099071 30.0185759,5.14086687 30.4643963,5.39164087 C34.5404688,7.69040248 38.5953118,10.0100619 42.6713843,12.3088235 C42.9473684,12.4760062 43.1596639,12.4760062 43.4356479,12.3088235 C46.1954887,10.7623839 49.5285272,12.24613 50.2078726,15.3181115 C50.2927908,15.5688854 50.2715613,15.8614551 50.2927908,16.1331269 Z M14.3299425,32.4125387 C14.2874834,32.4543344 14.2662539,32.4752322 14.2237948,32.49613 C11.931004,33.7917957 9.65944272,35.1083591 7.36665192,36.3831269 C7.23927466,36.4458204 6.98452012,36.4458204 6.85714286,36.3622291 C6.24148607,36.0069659 5.60459973,35.756192 4.90402477,35.7352941 C2.54754533,35.6726006 1.12516586,37.5743034 1.04024768,39.2043344 C0.9553295,41.126935 2.42016807,43.0913313 4.81910659,43.0704334 C6.92083149,43.0495356 8.51304732,41.3986068 8.49181778,39.3297214 C8.49181778,38.9535604 8.5979655,38.744582 8.93763821,38.5773994 C11.3790358,37.2190402 13.7992039,35.8397833 16.219372,34.4396285 C16.4528969,34.3142415 16.6439628,34.2724458 16.8987174,34.3978328 C18.406015,35.0874613 19.9770013,35.2128483 21.5904467,34.7739938 C21.7602831,34.7321981 21.9725785,34.7739938 22.1211853,34.8366873 C22.5882353,35.0456656 23.0552853,35.2964396 23.5223352,35.4845201 C23.7983193,35.5890093 23.8832375,35.7352941 23.8832375,36.0278638 C23.8832375,39.7685759 23.8832375,43.5092879 23.8832375,47.25 C23.8832375,47.5216718 23.7983193,47.6679567 23.5647943,47.7724458 C22.2910217,48.378483 21.3144626,49.9458204 21.5904467,51.6176471 C21.8876603,53.5611455 23.9256966,55.0448916 25.9000442,54.6687307 C27.6196373,54.3343653 28.7660327,53.1849845 28.9995577,51.3877709 C29.1693941,50.1756966 28.5749668,48.5665635 26.982751,47.7724458 C26.7704556,47.6679567 26.6430783,47.5425697 26.6430783,47.2917957 C26.6430783,43.6555728 26.6430783,40.0193498 26.6430783,36.3831269 C26.6430783,36.0696594 26.7916851,35.9860681 27.0888987,35.9442724 C27.8531623,35.8188854 28.6174259,35.6726006 29.3392304,35.4636223 C29.6789031,35.380031 29.9336577,35.3591331 30.2733304,35.505418 C31.9080053,36.1950464 33.4789916,36.0696594 34.9862893,35.1710526 C35.1985847,35.0456656 35.3471915,35.0456656 35.5807165,35.1710526 C37.5762937,36.3204334 39.5718709,37.4489164 41.5886776,38.5773994 C41.9071207,38.7654799 42.034498,38.9535604 42.034498,39.3297214 C41.9708094,41.503096 43.9026979,43.2794118 46.1530296,43.0495356 C48.3609023,42.8196594 49.910659,40.7298762 49.4011499,38.619195 C48.7854931,36.0905573 46.0044228,34.9411765 43.7540911,36.3204334 C43.5205661,36.4667183 43.3507298,36.5085139 43.0959752,36.3622291 C41.1853162,35.2755418 39.2746572,34.1888545 37.3639982,33.1021672 C37.0880142,32.9349845 37.0455551,32.7886997 37.1304732,32.49613 C37.7036709,30.5735294 37.3215391,28.880805 35.9203892,27.3970588 C35.6444051,27.1044892 34.3706325,25.0982972 34.2007961,24.7221362 C34.0521893,24.4295666 34.1158779,24.2623839 34.4130916,24.1160991 C37.3215391,22.4860681 40.2087572,20.8351393 43.1172048,19.1842105 C43.3507298,19.0588235 43.4993366,19.0588235 43.7328616,19.2051084 C44.5395843,19.748452 45.4736842,19.9156347 46.4290137,19.748452 C48.2972136,19.4349845 49.6559045,17.7631579 49.4860681,15.7987616 C49.2950022,13.6671827 47.1720478,12.0789474 45.0703229,12.5386997 C43.202123,12.9357585 42.034498,14.377709 42.0557276,16.2585139 C42.0557276,16.5719814 41.9708094,16.7600619 41.6735958,16.9272446 C38.7226891,18.5781734 35.7930119,20.25 32.8633348,21.9218266 C32.6085803,22.0681115 32.4599735,22.0472136 32.247678,21.8382353 C30.8677576,20.5216718 29.2118532,19.7902477 27.3224237,19.5603715 C26.6855374,19.4767802 26.6855374,19.4767802 26.6855374,18.8289474 C26.6855374,15.4226006 26.6855374,12.0162539 26.6855374,8.60990712 C26.6855374,8.12925697 26.7916851,7.85758514 27.2587351,7.60681115 C28.8721805,6.6873065 29.4878372,4.72291022 28.7448032,3.03018576 C28.0017691,1.3374613 26.0911101,0.417956656 24.2865989,0.96130031 C22.6519239,1.44195046 21.7390535,2.59133127 21.5904467,4.24226006 C21.4630694,5.51702786 22.0787262,6.9380805 23.5647943,7.73219814 C23.7983193,7.85758514 23.9469261,7.9620743 23.9469261,8.2755418 C23.9256966,12.0371517 23.9256966,15.7778638 23.9469261,19.5394737 C23.9469261,19.8320433 23.8195489,19.9365325 23.5647943,20.0619195 C22.8217603,20.4380805 22.0362671,20.751548 21.3993808,21.253096 C20.6775763,21.8382353 19.9982309,22.1726006 19.0004423,22.1726006 C18.8942946,22.1726006 18.8306059,22.1726006 18.7456877,22.1726006 C18.4909332,22.1726006 18.2149491,22.1517028 18.0026537,22.0472136 C15.0305175,20.375387 12.0796108,18.6826625 9.10747457,17.0317337 C8.68288368,16.8018576 8.47058824,16.5510836 8.55550641,16.0495356 C8.57673596,15.8614551 8.51304732,15.6524768 8.49181778,15.4643963 C8.19460416,13.6671827 6.41132242,12.1625387 4.26713843,12.5178019 C2.14418399,12.8521672 0.806722689,14.75387 1.1463954,16.7600619 C1.59221583,19.3304954 4.5855816,20.6470588 6.83591331,19.2260062 C7.09066785,19.0588235 7.2605042,19.0588235 7.53648828,19.2051084 C9.76559045,20.4798762 12.0159222,21.754644 14.2450243,23.0294118 C14.6271561,23.2383901 15.0092879,23.4682663 15.3914197,23.6772446 C12.7589562,26.373065 12.4617426,29.2569659 14.3299425,32.4125387 Z" id="path-2"></path>
        <filter x="-14.0%" y="-9.0%" width="127.9%" height="125.2%" filterUnits="objectBoundingBox" id="filter-3">
            <feOffset dx="0" dy="2" in="SourceAlpha" result="shadowOffsetOuter1"></feOffset>
            <feGaussianBlur stdDeviation="2" in="shadowOffsetOuter1" result="shadowBlurOuter1"></feGaussianBlur>
            <feColorMatrix values="0 0 0 0 0   0 0 0 0 0   0 0 0 0 0  0 0 0 0.3 0" type="matrix" in="shadowBlurOuter1"></feColorMatrix>
        </filter>
        <linearGradient x1="49.9823802%" y1="100.156499%" x2="49.9823802%" y2="-0.0487307331%" id="linearGradient-4">
            <stop stop-color="#00C2BF" offset="0%"></stop>
            <stop stop-color="#004AEC" offset="100%"></stop>
        </linearGradient>
        <path d="M20.5289695,23.7399381 C21.1233967,23.7817337 21.4206103,23.5936533 21.8452012,23.1965944 C23.6921716,21.50387 25.9000442,20.9814241 28.2989828,21.754644 C30.6554622,22.5278638 32.1203008,24.1787926 32.6085803,26.6029412 C32.6934985,27.0835913 32.8845644,27.3552632 33.3303848,27.6060372 C34.5616984,28.2956656 35.2835029,29.8003096 35.0287483,31.0332817 C34.7103052,32.6424149 33.6275984,33.7708978 32.1203008,34.000774 C31.3135781,34.126161 30.5068554,34.0425697 29.7850509,33.6037152 C29.4666077,33.4156347 29.2118532,33.4365325 28.89341,33.5619195 C26.7704556,34.4396285 24.7324193,34.2933437 22.7793012,33.0812693 C22.4820876,32.8931889 22.227333,32.872291 21.9088899,32.9767802 C19.1702786,33.8544892 16.3042901,32.3289474 15.6037152,29.6331269 C14.818222,26.5820433 17.3020787,23.5936533 20.5289695,23.7399381 Z" id="path-5"></path>
        <filter x="-35.7%" y="-39.3%" width="171.3%" height="210.1%" filterUnits="objectBoundingBox" id="filter-6">
            <feOffset dx="0" dy="2" in="SourceAlpha" result="shadowOffsetOuter1"></feOffset>
            <feGaussianBlur stdDeviation="2" in="shadowOffsetOuter1" result="shadowBlurOuter1"></feGaussianBlur>
            <feColorMatrix values="0 0 0 0 0   0 0 0 0 0   0 0 0 0 0  0 0 0 0.3 0" type="matrix" in="shadowBlurOuter1"></feColorMatrix>
        </filter>
    </defs>
    <g id="website" stroke="none" stroke-width="1" fill="none" fill-rule="evenodd" transform="translate(-531.000000, -1063.000000)">
        <g id="Stacked-Group" transform="translate(160.000000, 790.000000)">
            <g id="Group-10" transform="translate(208.000000, 0.000000)">
                <g id="storj" transform="translate(160.000000, 271.000000)">
                    <rect id="Rectangle-Copy-2" fill-opacity="0" fill="#FFFFFF" x="0" y="0" width="64" height="63"></rect>
                    <g id="Storj" transform="translate(6.588235, 3.705882)" fill-rule="nonzero">
                        <g id="Shape_5_">
                            <use fill="black" fill-opacity="1" filter="url(#filter-3)" xlink:href="#path-2"></use>
                            <use fill="url(#linearGradient-1)" fill-rule="evenodd" xlink:href="#path-2"></use>
                        </g>
                        <g id="Shape_6_">
                            <use fill="black" fill-opacity="1" filter="url(#filter-6)" xlink:href="#path-5"></use>
                            <use fill="url(#linearGradient-4)" fill-rule="evenodd" xlink:href="#path-5"></use>
                        </g>
                        <path d="M44.6881911,39.4133127 C44.6881911,38.8072755 45.1340115,38.3684211 45.7284387,38.3684211 C46.3016364,38.3684211 46.8111455,38.8490712 46.8111455,39.4133127 C46.8111455,39.9566563 46.2804069,40.4791022 45.7284387,40.4791022 C45.155241,40.4791022 44.6881911,40.0193498 44.6881911,39.4133127 Z" id="Shape_7_" fill="#2683FF"></path>
                        <path d="M24.2016807,4.51393189 C24.2016807,3.92879257 24.6687307,3.46904025 25.2631579,3.46904025 C25.8575851,3.46904025 26.3246351,3.92879257 26.3246351,4.51393189 C26.3246351,5.07817337 25.8363556,5.57972136 25.2631579,5.55882353 C24.6899602,5.55882353 24.2016807,5.05727554 24.2016807,4.51393189 Z" id="Shape_8_" fill="#2683FF"></path>
                        <path d="M5.81689518,39.4342105 C5.81689518,40.0193498 5.3498452,40.4791022 4.75541796,40.4791022 C4.2034498,40.4791022 3.69394073,39.9566563 3.69394073,39.4133127 C3.69394073,38.869969 4.2034498,38.3893189 4.7766475,38.3893189 C5.37107475,38.3684211 5.81689518,38.8281734 5.81689518,39.4342105 Z" id="Shape_9_" fill="#2683FF"></path>
                        <path d="M25.2631579,50.0294118 C25.8575851,50.0294118 26.3246351,50.4891641 26.3034056,51.0743034 C26.3034056,51.6594427 25.8363556,52.0982972 25.2419284,52.0982972 C24.6475011,52.0982972 24.1804511,51.6385449 24.1804511,51.0534056 C24.2016807,50.4473684 24.6687307,50.0085139 25.2631579,50.0294118 Z" id="Shape_10_" fill="#2683FF"></path>
                        <path d="M4.79787705,17.1780186 C4.18222026,17.1780186 3.71517028,16.7391641 3.69394073,16.1749226 C3.67271119,15.6106811 4.16099071,15.1509288 4.75541796,15.130031 C5.37107475,15.130031 5.81689518,15.5270898 5.81689518,16.1331269 C5.81689518,16.7391641 5.41353383,17.1571207 4.79787705,17.1780186 Z" id="Shape_11_" fill="#2683FF"></path>
                        <path d="M45.7284387,17.1780186 C45.112782,17.1780186 44.6881911,16.7391641 44.6881911,16.1331269 C44.6881911,15.5270898 45.1340115,15.1091331 45.7496683,15.130031 C46.3440955,15.130031 46.8323751,15.6106811 46.8111455,16.1749226 C46.8111455,16.7391641 46.322866,17.1780186 45.7284387,17.1780186 Z" id="Shape_12_" fill="#2683FF"></path>
                    </g>
                </g>
            </g>
        </g>
    </g>
</svg>