<?xml version="1.0" encoding="UTF-8"?>
<svg width="16px" height="15px" viewBox="0 0 16 15" version="1.1" xmlns="http://www.w3.org/2000/svg" xmlns:xlink="http://www.w3.org/1999/xlink">
    <!-- Generator: sketchtool 48.2 (47327) - http://www.bohemiancoding.com/sketch -->
    <title>CD1F4647-A60B-4C95-A1F9-483345E58B3A</title>
    <desc>Created with sketchtool.</desc>
    <defs></defs>
    <g id="website" stroke="none" stroke-width="1" fill="none" fill-rule="evenodd" transform="translate(-1284.000000, -39.000000)">
        <g id="Group-39" transform="translate(-1.000000, 20.000000)" fill-rule="nonzero">
            <g id="Group" transform="translate(1276.000000, 9.876847)">
                <g id="telegram-icon" transform="translate(9.000000, 9.000000)">
                    <path d="M15.990567,1.39662758 L13.2752549,14.3609376 C13.211306,14.6670259 12.849708,14.8057261 12.5945729,14.6217 L8.88792653,11.9504984 C8.66291189,11.7883033 8.35606913,11.7969248 8.14065443,11.9712706 L6.08555459,13.6341102 C5.8470797,13.8277157 5.4876658,13.719821 5.39633932,13.428253 L3.96935031,8.87292679 L0.282614963,7.50715072 C-0.0918845718,7.36789592 -0.0950845543,6.84309386 0.27834832,6.70030978 L15.4087797,0.906513176 C15.7295398,0.783392162 16.0604586,1.06230512 15.990567,1.39662758 Z" id="Shape" fill="#FFFFFF"></path>
                    <path d="M11.8255484,3.86182808 L5.31177551,8.70407358 C5.06211471,8.89002174 4.94460836,9.253937 5.02515003,9.59462951 L5.72940747,12.5814947 C5.77950494,12.7931043 6.03389538,12.7714888 6.05827829,12.5528404 L6.24131083,10.9148892 C6.27588773,10.606509 6.39771044,10.3222383 6.58671244,10.1100191 L11.9623866,4.07864753 C12.0630407,3.96613641 11.9425496,3.77508922 11.8255484,3.86182808 Z" id="Shape" fill="#2D8EFF"></path>
                </g>
            </g>
        </g>
    </g>
</svg>